<?xml version="1.0" encoding="utf-8"?>
<!-- Generator: Adobe Illustrator 17.0.0, SVG Export Plug-In . SVG Version: 6.00 Build 0)  -->
<!DOCTYPE svg PUBLIC "-//W3C//DTD SVG 1.1//EN" "http://www.w3.org/Graphics/SVG/1.1/DTD/svg11.dtd">
<svg version="1.1" id="Layer_1" xmlns="http://www.w3.org/2000/svg" xmlns:xlink="http://www.w3.org/1999/xlink" x="0px" y="0px"
	 width="755px" height="634px" viewBox="0 0 755 634" enable-background="new 0 0 755 634" xml:space="preserve">
<g>
	<g>
		<path fill="#E5DCFF" d="M345.4,76.7c28.936,20.749,64.057,37.248,98.091,28.881c46.578-11.451,75.4-65.096,121.67-77.874
			c47.07-12.999,94.979,21.373,123.849,62.859c21.306,30.617,36.723,70.792,23.963,106.349
			c-14.245,39.697-60.105,63.865-63.057,106.22c-2.213,31.751,21.188,58.358,43.413,79.781
			c22.225,21.423,46.777,45.876,47.984,77.688c0.896,23.63-11.821,45.598-27.227,62.709
			c-31.615,35.116-80.377,56.369-124.248,42.433c-45.986-14.607-82.487-64.761-130.201-59.146
			c-28.718,3.379-51.175,26.487-73.829,45.493c-54.164,45.441-121.716,72.69-190.684,76.919
			c-29.788,1.827-61.132-0.976-86.525-17.58c-36.721-24.01-53.665-77.128-38.221-119.824
			c14.199-39.257,51.104-61.727,64.851-101.194c13.986-40.163-6.056-79.687-33.653-106.523
			c-20.458-19.894-62.087-46.478-46.729-82.012c11.611-26.862,48.174-30.253,43.715-66.073
			c-2.329-18.716-15.424-34.373-12.718-54.049c4.776-34.723,38.883-58.794,68.379-67.743c36.779-11.158,82.766-9.476,117.194,9.253
			C298.076,37.773,320.7,58.988,345.4,76.7z"/>
		<ellipse fill="#E5DCFF" cx="71.254" cy="365.097" rx="52.429" ry="55.558"/>
		<ellipse fill="#E5DCFF" cx="712.312" cy="307.077" rx="38.397" ry="33.328"/>
	</g>
	<ellipse opacity="0.8" fill="#E5DCFF" cx="138.699" cy="573.082" rx="49.083" ry="12.494"/>
	<ellipse opacity="0.8" fill="#E5DCFF" cx="588.787" cy="557.811" rx="49.083" ry="12.494"/>
	<path opacity="0.8" fill="#E5DCFF" d="M409.992,534.672c-21.825,0-40.314,2.084-46.694,4.964
		c-5.848-1.963-19.224-3.338-34.809-3.338c-20.967,0-37.963,2.485-37.963,5.55c0,3.065,16.997,5.55,37.963,5.55
		c15.584,0,28.96-1.374,34.809-3.338c6.38,2.88,24.869,4.964,46.694,4.964c27.108,0,49.083-3.213,49.083-7.176
		S437.1,534.672,409.992,534.672z"/>
	<g>
		<g>
			<g>
				<g>
					<path fill="#FFFFFF" d="M557.816,206.035H177.04c-14.55,0-26.344,11.795-26.344,26.344v209.874
						c0,14.55,11.795,26.345,26.344,26.345h380.776c14.549,0,26.344-11.795,26.344-26.345V232.379
						C584.16,217.829,572.366,206.035,557.816,206.035z"/>
					<path fill="#FEFEFE" d="M558.245,205.606H177.469c-14.55,0-26.344,11.795-26.344,26.344v209.874
						c0,14.55,11.795,26.345,26.344,26.345h380.776c14.549,0,26.344-11.795,26.344-26.345V231.95
						C584.589,217.401,572.794,205.606,558.245,205.606z"/>
					<path fill="#FDFDFD" d="M558.673,205.177H177.897c-14.55,0-26.344,11.795-26.344,26.344v209.874
						c0,14.55,11.795,26.345,26.344,26.345h380.776c14.549,0,26.344-11.795,26.344-26.345V231.522
						C585.018,216.972,573.223,205.177,558.673,205.177z"/>
					<path fill="#FCFCFC" d="M559.102,204.749H178.326c-14.55,0-26.344,11.795-26.344,26.344v209.874
						c0,14.55,11.795,26.345,26.344,26.345h380.776c14.549,0,26.344-11.795,26.344-26.345V231.093
						C585.446,216.543,573.651,204.749,559.102,204.749z"/>
					<path fill="#FBFBFB" d="M559.531,204.32H178.755c-14.55,0-26.344,11.795-26.344,26.344v209.874
						c0,14.55,11.795,26.345,26.344,26.345h380.776c14.549,0,26.344-11.795,26.344-26.345V230.664
						C585.875,216.115,574.08,204.32,559.531,204.32z"/>
					<path fill="#FAFAFA" d="M559.959,203.892H179.183c-14.55,0-26.344,11.795-26.344,26.344V440.11
						c0,14.55,11.795,26.345,26.344,26.345h380.776c14.549,0,26.344-11.795,26.344-26.345V230.236
						C586.303,215.686,574.509,203.892,559.959,203.892z"/>
					<path fill="#F9F9FA" d="M560.388,203.463H179.612c-14.55,0-26.344,11.795-26.344,26.344v209.874
						c0,14.55,11.795,26.345,26.344,26.345h380.776c14.549,0,26.344-11.795,26.344-26.345V229.807
						C586.732,215.258,574.937,203.463,560.388,203.463z"/>
					<path fill="#F8F8F9" d="M560.816,203.034H180.04c-14.55,0-26.344,11.795-26.344,26.344v209.874
						c0,14.55,11.795,26.345,26.344,26.345h380.776c14.549,0,26.344-11.795,26.344-26.345V229.379
						C587.161,214.829,575.366,203.034,560.816,203.034z"/>
					<path fill="#F7F8F8" d="M561.245,202.606H180.469c-14.55,0-26.344,11.795-26.344,26.344v209.874
						c0,14.55,11.795,26.345,26.344,26.345h380.776c14.549,0,26.344-11.795,26.344-26.345V228.95
						C587.589,214.4,575.794,202.606,561.245,202.606z"/>
					<path fill="#F6F7F7" d="M561.674,202.177H180.898c-14.55,0-26.344,11.795-26.344,26.344v209.874
						c0,14.55,11.795,26.345,26.344,26.345h380.776c14.549,0,26.344-11.795,26.344-26.345V228.521
						C588.018,213.972,576.223,202.177,561.674,202.177z"/>
					<path fill="#F5F6F6" d="M562.102,201.749H181.326c-14.55,0-26.344,11.795-26.344,26.344v209.874
						c0,14.55,11.795,26.345,26.344,26.345h380.776c14.549,0,26.344-11.795,26.344-26.345V228.093
						C588.446,213.543,576.652,201.749,562.102,201.749z"/>
					<path fill="#F4F5F5" d="M562.531,201.32H181.755c-14.55,0-26.344,11.795-26.344,26.344v209.874
						c0,14.55,11.795,26.345,26.344,26.345h380.776c14.549,0,26.344-11.795,26.344-26.345V227.664
						C588.875,213.115,577.08,201.32,562.531,201.32z"/>
					<path fill="#F3F4F4" d="M562.959,200.891H182.183c-14.55,0-26.344,11.795-26.344,26.344v209.874
						c0,14.55,11.795,26.345,26.344,26.345h380.776c14.549,0,26.344-11.795,26.344-26.345V227.236
						C589.304,212.686,577.509,200.891,562.959,200.891z"/>
					<path fill="#F2F3F3" d="M563.388,200.463H182.612c-14.55,0-26.344,11.795-26.344,26.344v209.874
						c0,14.55,11.795,26.345,26.344,26.345h380.776c14.549,0,26.344-11.795,26.344-26.345V226.807
						C589.732,212.257,577.937,200.463,563.388,200.463z"/>
					<path fill="#F1F2F2" d="M563.817,200.034H183.041c-14.55,0-26.344,11.795-26.344,26.344v209.874
						c0,14.55,11.795,26.345,26.344,26.345h380.776c14.549,0,26.344-11.795,26.344-26.345V226.378
						C590.161,211.829,578.366,200.034,563.817,200.034z"/>
					<path fill="#F0F1F1" d="M564.245,199.605H183.469c-14.55,0-26.344,11.795-26.344,26.344v209.874
						c0,14.55,11.795,26.345,26.344,26.345h380.776c14.549,0,26.344-11.795,26.344-26.345V225.95
						C590.59,211.4,578.795,199.605,564.245,199.605z"/>
					<path fill="#EFF0F0" d="M564.674,199.177H183.898c-14.55,0-26.344,11.795-26.344,26.344v209.874
						c0,14.55,11.795,26.345,26.344,26.345h380.776c14.549,0,26.344-11.795,26.344-26.345V225.521
						C591.018,210.972,579.223,199.177,564.674,199.177z"/>
					<path fill="#EEEFEF" d="M565.102,198.748H184.326c-14.55,0-26.344,11.795-26.344,26.344v209.874
						c0,14.55,11.795,26.345,26.344,26.345h380.776c14.549,0,26.344-11.795,26.344-26.345V225.093
						C591.447,210.543,579.652,198.748,565.102,198.748z"/>
					<path fill="#EDEEEF" d="M565.531,198.32H184.755c-14.55,0-26.344,11.795-26.344,26.344v209.874
						c0,14.55,11.795,26.345,26.344,26.345h380.776c14.549,0,26.344-11.795,26.344-26.345V224.664
						C591.875,210.114,580.08,198.32,565.531,198.32z"/>
					<path fill="#ECEDEE" d="M565.96,197.891H185.184c-14.55,0-26.344,11.795-26.344,26.344v209.874
						c0,14.55,11.795,26.345,26.344,26.345H565.96c14.549,0,26.344-11.795,26.344-26.345V224.235
						C592.304,209.686,580.509,197.891,565.96,197.891z"/>
					<path fill="#EBECED" d="M566.388,197.462H185.612c-14.55,0-26.344,11.795-26.344,26.344V433.68
						c0,14.55,11.795,26.345,26.344,26.345h380.776c14.549,0,26.344-11.795,26.344-26.345V223.807
						C592.733,209.257,580.938,197.462,566.388,197.462z"/>
					<path fill="#EAEBEC" d="M566.817,197.034H186.041c-14.55,0-26.344,11.795-26.344,26.344v209.874
						c0,14.55,11.795,26.345,26.344,26.345h380.776c14.549,0,26.344-11.795,26.344-26.345V223.378
						C593.161,208.829,581.366,197.034,566.817,197.034z"/>
					<path fill="#E9EAEB" d="M567.245,196.605H186.469c-14.55,0-26.344,11.795-26.344,26.344v209.874
						c0,14.55,11.795,26.345,26.344,26.345h380.776c14.549,0,26.344-11.795,26.344-26.345V222.95
						C593.59,208.4,581.795,196.605,567.245,196.605z"/>
					<path fill="#E8E9EA" d="M567.674,196.177H186.898c-14.55,0-26.344,11.795-26.344,26.344v209.874
						c0,14.55,11.795,26.345,26.344,26.345h380.776c14.549,0,26.344-11.795,26.344-26.345V222.521
						C594.018,207.971,582.224,196.177,567.674,196.177z"/>
					<path fill="#E8E9E9" d="M568.103,195.748H187.327c-14.55,0-26.344,11.795-26.344,26.344v209.874
						c0,14.55,11.795,26.345,26.344,26.345h380.776c14.549,0,26.344-11.795,26.344-26.345V222.092
						C594.447,207.543,582.652,195.748,568.103,195.748z"/>
					<path fill="#E7E8E8" d="M568.531,195.319H187.755c-14.55,0-26.344,11.795-26.344,26.344v209.874
						c0,14.55,11.795,26.345,26.344,26.345h380.776c14.549,0,26.344-11.795,26.344-26.345V221.664
						C594.876,207.114,583.081,195.319,568.531,195.319z"/>
					<path fill="#E6E7E7" d="M568.96,194.891H188.184c-14.55,0-26.344,11.795-26.344,26.344v209.874
						c0,14.55,11.795,26.345,26.344,26.345H568.96c14.549,0,26.344-11.795,26.344-26.345V221.235
						C595.304,206.686,583.509,194.891,568.96,194.891z"/>
					<path fill="#E5E6E6" d="M569.388,194.462H188.613c-14.55,0-26.344,11.795-26.344,26.344V430.68
						c0,14.55,11.795,26.345,26.344,26.345h380.776c14.549,0,26.344-11.795,26.344-26.345V220.807
						C595.733,206.257,583.938,194.462,569.388,194.462z"/>
					<path fill="#E4E5E5" d="M569.817,194.034H189.041c-14.55,0-26.344,11.795-26.344,26.344v209.874
						c0,14.55,11.795,26.345,26.344,26.345h380.776c14.549,0,26.344-11.795,26.344-26.345V220.378
						C596.161,205.828,584.367,194.034,569.817,194.034z"/>
					<path fill="#E3E4E4" d="M570.246,193.605H189.47c-14.55,0-26.344,11.795-26.344,26.344v209.874
						c0,14.55,11.795,26.345,26.344,26.345h380.776c14.549,0,26.344-11.795,26.344-26.345V219.949
						C596.59,205.4,584.795,193.605,570.246,193.605z"/>
					<path fill="#E2E3E4" d="M570.674,193.176H189.898c-14.55,0-26.344,11.795-26.344,26.344v209.874
						c0,14.55,11.795,26.345,26.344,26.345h380.776c14.549,0,26.344-11.795,26.344-26.345V219.521
						C597.019,204.971,585.224,193.176,570.674,193.176z"/>
					<path fill="#E1E2E3" d="M571.103,192.748H190.327c-14.55,0-26.344,11.795-26.344,26.344v209.874
						c0,14.55,11.795,26.345,26.344,26.345h380.776c14.549,0,26.344-11.795,26.344-26.345V219.092
						C597.447,204.543,585.652,192.748,571.103,192.748z"/>
					<path fill="#E0E1E2" d="M571.531,192.319H190.756c-14.55,0-26.344,11.795-26.344,26.344v209.874
						c0,14.55,11.795,26.345,26.344,26.345h380.776c14.549,0,26.344-11.795,26.344-26.345V218.664
						C597.876,204.114,586.081,192.319,571.531,192.319z"/>
					<path fill="#DFE0E1" d="M571.96,191.891H191.184c-14.55,0-26.344,11.795-26.344,26.344v209.874
						c0,14.55,11.795,26.345,26.344,26.345H571.96c14.549,0,26.344-11.795,26.344-26.345V218.235
						C598.304,203.685,586.51,191.891,571.96,191.891z"/>
					<path fill="#DEDFE0" d="M572.389,191.462H191.613c-14.55,0-26.344,11.795-26.344,26.344V427.68
						c0,14.55,11.795,26.345,26.344,26.345h380.776c14.549,0,26.344-11.795,26.344-26.345V217.806
						C598.733,203.257,586.938,191.462,572.389,191.462z"/>
					<path fill="#DDDEDF" d="M572.817,191.033H192.041c-14.55,0-26.344,11.795-26.344,26.344v209.874
						c0,14.55,11.795,26.345,26.344,26.345h380.776c14.549,0,26.344-11.795,26.344-26.345V217.378
						C599.162,202.828,587.367,191.033,572.817,191.033z"/>
					<path fill="#DCDDDE" d="M573.246,190.605H192.47c-14.55,0-26.344,11.795-26.344,26.344v209.874
						c0,14.55,11.795,26.345,26.344,26.345h380.776c14.549,0,26.344-11.795,26.344-26.345V216.949
						C599.59,202.4,587.795,190.605,573.246,190.605z"/>
					<path fill="#DBDCDD" d="M573.674,190.176H192.899c-14.55,0-26.344,11.795-26.344,26.344v209.874
						c0,14.55,11.795,26.345,26.344,26.345h380.776c14.549,0,26.344-11.795,26.344-26.345V216.521
						C600.019,201.971,588.224,190.176,573.674,190.176z"/>
					<path fill="#DADBDC" d="M574.103,189.748H193.327c-14.55,0-26.344,11.795-26.344,26.344v209.874
						c0,14.55,11.795,26.345,26.344,26.345h380.776c14.549,0,26.344-11.795,26.344-26.345V216.092
						C600.447,201.542,588.653,189.748,574.103,189.748z"/>
					<path fill="#D9DADB" d="M574.532,189.319H193.756c-14.55,0-26.344,11.795-26.344,26.344v209.874
						c0,14.55,11.795,26.345,26.344,26.345h380.776c14.549,0,26.344-11.795,26.344-26.345V215.663
						C600.876,201.114,589.081,189.319,574.532,189.319z"/>
					<path fill="#D8DADA" d="M574.96,188.89H194.184c-14.55,0-26.344,11.795-26.344,26.344v209.874
						c0,14.55,11.795,26.345,26.344,26.345H574.96c14.549,0,26.344-11.795,26.344-26.345V215.235
						C601.305,200.685,589.51,188.89,574.96,188.89z"/>
					<path fill="#D7D9D9" d="M575.389,188.462H194.613c-14.55,0-26.344,11.795-26.344,26.344V424.68
						c0,14.55,11.795,26.345,26.344,26.345h380.776c14.549,0,26.344-11.795,26.344-26.345V214.806
						C601.733,200.257,589.938,188.462,575.389,188.462z"/>
					<path fill="#D6D8D9" d="M575.818,188.033H195.042c-14.55,0-26.344,11.795-26.344,26.344v209.874
						c0,14.55,11.795,26.345,26.344,26.345h380.776c14.549,0,26.344-11.795,26.344-26.345V214.377
						C602.162,199.828,590.367,188.033,575.818,188.033z"/>
					<path fill="#D5D7D8" d="M576.246,187.605H195.47c-14.55,0-26.344,11.795-26.344,26.344v209.874
						c0,14.55,11.795,26.345,26.344,26.345h380.776c14.549,0,26.344-11.795,26.344-26.345V213.949
						C602.59,199.399,590.796,187.605,576.246,187.605z"/>
					<path fill="#D4D6D7" d="M576.675,187.176H195.899c-14.55,0-26.344,11.795-26.344,26.344v209.874
						c0,14.55,11.795,26.345,26.344,26.345h380.776c14.549,0,26.344-11.795,26.344-26.345V213.52
						C603.019,198.971,591.224,187.176,576.675,187.176z"/>
					<path fill="#D3D5D6" d="M577.103,186.747H196.327c-14.55,0-26.344,11.795-26.344,26.344v209.874
						c0,14.55,11.795,26.345,26.344,26.345h380.776c14.549,0,26.344-11.795,26.344-26.345V213.092
						C603.448,198.542,591.653,186.747,577.103,186.747z"/>
					<path fill="#D2D4D5" d="M577.532,186.319H196.756c-14.55,0-26.344,11.795-26.344,26.344v209.874
						c0,14.55,11.795,26.345,26.344,26.345h380.776c14.549,0,26.344-11.795,26.344-26.345V212.663
						C603.876,198.114,592.081,186.319,577.532,186.319z"/>
					<path fill="#D1D3D4" d="M577.961,185.89H197.185c-14.55,0-26.344,11.795-26.344,26.344v209.874
						c0,14.55,11.795,26.345,26.344,26.345h380.776c14.549,0,26.344-11.795,26.344-26.345V212.234
						C604.305,197.685,592.51,185.89,577.961,185.89z"/>
				</g>
			</g>
			<path fill="#6136C9" d="M577.961,185.89H197.185c-14.55,0-26.344,11.795-26.344,26.344v209.874
				c0,14.55,11.795,26.345,26.344,26.345h380.776c14.549,0,26.344-11.795,26.344-26.345V212.234
				C604.305,197.685,592.51,185.89,577.961,185.89z"/>
			<path fill="#B38FF7" d="M568.028,199.893H218.699c-7.249,0-13.125,5.876-13.125,13.125v208.307
				c0,7.249,5.876,13.125,13.125,13.125h349.329c7.249,0,13.125-5.876,13.125-13.125V213.018
				C581.153,205.769,575.277,199.893,568.028,199.893z"/>
			<circle fill="#B38FF7" cx="188.512" cy="317.171" r="8.823"/>
			<path fill="#FFFFFF" d="M554.422,214.544H234.436c-6.359,0-11.513,5.155-11.513,11.513V406.87
				c0,6.358,5.155,11.513,11.513,11.513h319.986c6.359,0,11.513-5.155,11.513-11.513V226.057
				C565.935,219.699,560.78,214.544,554.422,214.544z"/>
			<path fill="#FFCE55" d="M554.422,214.544H234.436c-6.359,0-11.513,5.155-11.513,11.513v19.4h343.012v-19.4
				C565.935,219.699,560.78,214.544,554.422,214.544z"/>
			<path fill="#DB3931" d="M501.861,304.74c-13.301,0.337-23.162-11.959-35.426-17.118c-15.644-6.581-34.73-0.375-46.221,12.115
				c-5.41,5.88-10.27,13.514-18.143,14.879c-11.218,1.946-20.285-10.07-31.601-11.335c-16.738-1.87-27.57,19.403-44.194,22.106
				c-15.076,2.452-30.65-11.144-44.706-5.164c-6.111,2.6-10.178,8.348-15.147,12.756c-4.969,4.408-12.531,7.55-18.091,3.918v22.023
				h293.783v-75.302C528.493,289.718,516.785,304.361,501.861,304.74z"/>
			<circle fill="#FFCE55" cx="259.693" cy="385.579" r="10.523"/>
			<rect x="279.504" y="379.961" fill="#FFCE55" width="101.859" height="11.236"/>
			<rect x="440.259" y="370.061" fill="#00A79D" width="101.859" height="5.618"/>
			<rect x="440.259" y="382.77" fill="#00A79D" width="101.859" height="5.618"/>
			<rect x="440.259" y="395.479" fill="#00A79D" width="101.859" height="5.618"/>
			<rect x="248.334" y="258.23" fill="#00A79D" width="51.371" height="18.254"/>
			<circle fill="#5FC8D7" cx="545.409" cy="230" r="5.971"/>
			<circle fill="#F7941D" cx="497.159" cy="230" r="5.971"/>
			<circle fill="#EF4065" cx="521.625" cy="230" r="5.971"/>
		</g>
		<path fill="#F16680" d="M521.211,478.573h-3.969c-0.307-1.012-0.703-1.973-1.195-2.889l2.806-2.806
			c1.042-1.042,1.042-2.73,0-3.772l-2.77-2.77c-1.042-1.042-2.73-1.042-3.772,0l-2.806,2.806c-0.916-0.491-1.878-0.888-2.889-1.195
			v-3.97c0-1.473-1.194-2.667-2.667-2.667h-3.918c-1.473,0-2.667,1.194-2.667,2.667v3.969c-1.012,0.307-1.973,0.704-2.889,1.195
			l-2.806-2.806c-1.041-1.042-2.73-1.042-3.771,0l-2.77,2.77c-1.042,1.041-1.042,2.73,0,3.772l2.805,2.806
			c-0.491,0.916-0.888,1.877-1.195,2.889h-3.969c-1.473,0-2.667,1.194-2.667,2.667v3.917c0,1.473,1.194,2.667,2.667,2.667h3.97
			c0.307,1.011,0.704,1.973,1.195,2.889l-2.806,2.806c-1.042,1.041-1.042,2.73,0,3.772l2.77,2.77c1.041,1.041,2.73,1.041,3.771,0
			l2.806-2.806c0.916,0.491,1.877,0.888,2.889,1.195v3.97c0,1.473,1.194,2.667,2.667,2.667h3.918c1.473,0,2.667-1.194,2.667-2.667
			v-3.97c1.011-0.307,1.973-0.704,2.889-1.195l2.806,2.806c1.041,1.041,2.73,1.041,3.772,0l2.77-2.77
			c1.042-1.041,1.042-2.73,0-3.772l-2.806-2.806c0.491-0.916,0.888-1.877,1.195-2.889h3.969c1.473,0,2.667-1.194,2.667-2.667v-3.917
			C523.878,479.767,522.684,478.573,521.211,478.573z M501.99,490.766c-4.179,0-7.568-3.388-7.568-7.568
			c0-4.179,3.388-7.568,7.568-7.568c4.18,0,7.568,3.389,7.568,7.568C509.557,487.378,506.169,490.766,501.99,490.766z"/>
		<g>
			<path fill="#B38FF7" d="M283.108,468.638h-28.445c-3.338,0-6.043,2.706-6.043,6.043v28.445c0,3.337,2.706,6.043,6.043,6.043
				h28.445c3.337,0,6.043-2.706,6.043-6.043v-28.445C289.151,471.344,286.445,468.638,283.108,468.638z"/>
			<g>
				<path fill="#FFFFFF" d="M266.382,497.648l-7.599-7.599c-0.894-0.894-0.894-2.343,0-3.237c0.894-0.894,2.342-0.894,3.236,0
					l4.363,4.363l10.344-10.344c0.894-0.894,2.342-0.894,3.236,0c0.894,0.894,0.894,2.342,0,3.236L266.382,497.648z"/>
			</g>
		</g>
		<g>
			<path fill="#FFCE55" d="M594.288,119.862l-11.684,29.906c3.401,1.172,7.048,1.817,10.847,1.817
				c15.464,0,28.462-10.545,32.202-24.836L594.288,119.862z"/>
			<path fill="#F16680" d="M594.026,117.042l32.197,7.07c0.333-1.89,0.517-3.831,0.517-5.816c0-18.384-14.903-33.288-33.288-33.288
				c-10.413,0-19.706,4.784-25.81,12.27L594.026,117.042z"/>
			<path fill="#00A79D" d="M591.822,118.761l-25.797-19.323c-3.694,5.362-5.861,11.856-5.861,18.859
				c0,13.631,8.197,25.342,19.928,30.49L591.822,118.761z"/>
		</g>
		<g>
			<rect x="589.093" y="206.713" fill="#5FC8D7" width="60.102" height="37.801"/>
			<polygon fill="#8CECF4" points="589.093,206.713 619.144,227.388 649.195,206.713 			"/>
		</g>
		<g>
			<g>
				<g>
					<path fill="#FFFFFF" d="M606.675,283.8H409.531c-5.752,0-10.414,4.663-10.414,10.414v136.533
						c0,5.752,4.663,10.414,10.414,10.414h197.144c5.751,0,10.414-4.662,10.414-10.414V294.214
						C617.089,288.463,612.426,283.8,606.675,283.8z"/>
					<path fill="#FEFEFE" d="M606.996,283.479H409.852c-5.752,0-10.414,4.663-10.414,10.414v136.533
						c0,5.752,4.663,10.414,10.414,10.414h197.144c5.751,0,10.414-4.662,10.414-10.414V293.893
						C617.41,288.142,612.748,283.479,606.996,283.479z"/>
					<path fill="#FDFDFD" d="M607.318,283.158H410.173c-5.752,0-10.414,4.663-10.414,10.414v136.533
						c0,5.752,4.663,10.414,10.414,10.414h197.144c5.751,0,10.414-4.662,10.414-10.414V293.572
						C617.732,287.82,613.069,283.158,607.318,283.158z"/>
					<path fill="#FCFCFC" d="M607.639,282.836H410.495c-5.752,0-10.414,4.663-10.414,10.414v136.533
						c0,5.752,4.663,10.414,10.414,10.414h197.144c5.751,0,10.414-4.662,10.414-10.414V293.25
						C618.053,287.499,613.39,282.836,607.639,282.836z"/>
					<path fill="#FBFBFB" d="M607.96,282.515H410.816c-5.752,0-10.414,4.663-10.414,10.414v136.533
						c0,5.752,4.663,10.414,10.414,10.414H607.96c5.751,0,10.414-4.662,10.414-10.414V292.929
						C618.374,287.178,613.712,282.515,607.96,282.515z"/>
					<path fill="#FAFAFA" d="M608.282,282.194H411.137c-5.752,0-10.414,4.663-10.414,10.414V429.14
						c0,5.752,4.663,10.414,10.414,10.414h197.144c5.751,0,10.414-4.662,10.414-10.414V292.608
						C618.696,286.856,614.033,282.194,608.282,282.194z"/>
					<path fill="#F9F9FA" d="M608.603,281.872H411.458c-5.752,0-10.414,4.663-10.414,10.414v136.533
						c0,5.752,4.663,10.414,10.414,10.414h197.144c5.751,0,10.414-4.662,10.414-10.414V292.286
						C619.017,286.535,614.354,281.872,608.603,281.872z"/>
					<path fill="#F8F8F9" d="M608.924,281.551H411.78c-5.752,0-10.414,4.663-10.414,10.414v136.533
						c0,5.752,4.663,10.414,10.414,10.414h197.144c5.751,0,10.414-4.662,10.414-10.414V291.965
						C619.338,286.214,614.676,281.551,608.924,281.551z"/>
					<path fill="#F7F8F8" d="M609.245,281.23H412.101c-5.752,0-10.414,4.663-10.414,10.414v136.533
						c0,5.752,4.663,10.414,10.414,10.414h197.144c5.751,0,10.414-4.662,10.414-10.414V291.644
						C619.66,285.892,614.997,281.23,609.245,281.23z"/>
					<path fill="#F6F7F7" d="M609.567,280.909H412.422c-5.752,0-10.414,4.663-10.414,10.414v136.533
						c0,5.752,4.663,10.414,10.414,10.414h197.144c5.751,0,10.414-4.662,10.414-10.414V291.323
						C619.981,285.571,615.318,280.909,609.567,280.909z"/>
					<path fill="#F5F6F6" d="M609.888,280.587H412.744c-5.752,0-10.414,4.663-10.414,10.414v136.533
						c0,5.752,4.663,10.414,10.414,10.414h197.144c5.751,0,10.414-4.662,10.414-10.414V291.001
						C620.302,285.25,615.64,280.587,609.888,280.587z"/>
					<path fill="#F4F5F5" d="M610.209,280.266H413.065c-5.752,0-10.414,4.663-10.414,10.414v136.533
						c0,5.752,4.663,10.414,10.414,10.414h197.144c5.751,0,10.414-4.662,10.414-10.414V290.68
						C620.623,284.928,615.961,280.266,610.209,280.266z"/>
					<path fill="#F3F4F4" d="M610.531,279.945H413.386c-5.752,0-10.414,4.663-10.414,10.414v136.533
						c0,5.752,4.663,10.414,10.414,10.414h197.144c5.751,0,10.414-4.662,10.414-10.414V290.359
						C620.945,284.607,616.282,279.945,610.531,279.945z"/>
					<path fill="#F2F3F3" d="M610.852,279.623H413.708c-5.752,0-10.414,4.663-10.414,10.414V426.57
						c0,5.752,4.663,10.414,10.414,10.414h197.144c5.751,0,10.414-4.662,10.414-10.414V290.037
						C621.266,284.286,616.604,279.623,610.852,279.623z"/>
					<path fill="#F1F2F2" d="M611.173,279.302H414.029c-5.752,0-10.414,4.663-10.414,10.414v136.533
						c0,5.752,4.663,10.414,10.414,10.414h197.144c5.751,0,10.414-4.662,10.414-10.414V289.716
						C621.587,283.965,616.925,279.302,611.173,279.302z"/>
					<path fill="#F0F1F1" d="M611.495,278.981H414.35c-5.752,0-10.414,4.663-10.414,10.414v136.533
						c0,5.752,4.663,10.414,10.414,10.414h197.144c5.752,0,10.414-4.662,10.414-10.414V289.395
						C621.909,283.643,617.246,278.981,611.495,278.981z"/>
					<path fill="#EFF0F0" d="M611.816,278.659H414.672c-5.752,0-10.414,4.663-10.414,10.414v136.533
						c0,5.752,4.663,10.414,10.414,10.414h197.144c5.752,0,10.414-4.662,10.414-10.414V289.073
						C622.23,283.322,617.567,278.659,611.816,278.659z"/>
					<path fill="#EEEFEF" d="M612.137,278.338H414.993c-5.752,0-10.414,4.663-10.414,10.414v136.533
						c0,5.752,4.663,10.414,10.414,10.414h197.144c5.751,0,10.414-4.662,10.414-10.414V288.752
						C622.551,283.001,617.889,278.338,612.137,278.338z"/>
					<path fill="#EDEEEF" d="M612.459,278.017H415.314c-5.752,0-10.414,4.663-10.414,10.414v136.533
						c0,5.752,4.663,10.414,10.414,10.414h197.144c5.752,0,10.414-4.662,10.414-10.414V288.431
						C622.873,282.679,618.21,278.017,612.459,278.017z"/>
					<path fill="#ECEDEE" d="M612.78,277.695H415.635c-5.752,0-10.414,4.663-10.414,10.414v136.533
						c0,5.752,4.663,10.414,10.414,10.414H612.78c5.752,0,10.414-4.662,10.414-10.414V288.109
						C623.194,282.358,618.531,277.695,612.78,277.695z"/>
					<path fill="#EBECED" d="M613.101,277.374H415.957c-5.752,0-10.414,4.663-10.414,10.414v136.533
						c0,5.752,4.663,10.414,10.414,10.414h197.144c5.752,0,10.414-4.662,10.414-10.414V287.788
						C623.515,282.037,618.853,277.374,613.101,277.374z"/>
					<path fill="#EAEBEC" d="M613.422,277.053H416.278c-5.752,0-10.414,4.663-10.414,10.414v136.533
						c0,5.752,4.663,10.414,10.414,10.414h197.144c5.752,0,10.414-4.662,10.414-10.414V287.467
						C623.837,281.715,619.174,277.053,613.422,277.053z"/>
					<path fill="#E9EAEB" d="M613.744,276.731H416.599c-5.752,0-10.414,4.663-10.414,10.414v136.533
						c0,5.752,4.663,10.414,10.414,10.414h197.144c5.752,0,10.414-4.662,10.414-10.414V287.145
						C624.158,281.394,619.495,276.731,613.744,276.731z"/>
					<path fill="#E8E9EA" d="M614.065,276.41H416.921c-5.752,0-10.414,4.663-10.414,10.414v136.533
						c0,5.752,4.663,10.414,10.414,10.414h197.144c5.752,0,10.414-4.662,10.414-10.414V286.824
						C624.479,281.073,619.817,276.41,614.065,276.41z"/>
					<path fill="#E8E9E9" d="M614.386,276.089H417.242c-5.752,0-10.414,4.663-10.414,10.414v136.533
						c0,5.752,4.663,10.414,10.414,10.414h197.144c5.752,0,10.414-4.662,10.414-10.414V286.503
						C624.8,280.751,620.138,276.089,614.386,276.089z"/>
					<path fill="#E7E8E8" d="M614.708,275.768H417.563c-5.752,0-10.414,4.663-10.414,10.414v136.533
						c0,5.752,4.663,10.414,10.414,10.414h197.144c5.752,0,10.414-4.662,10.414-10.414V286.182
						C625.122,280.43,620.459,275.768,614.708,275.768z"/>
					<path fill="#E6E7E7" d="M615.029,275.446H417.885c-5.752,0-10.414,4.663-10.414,10.414v136.533
						c0,5.752,4.663,10.414,10.414,10.414h197.144c5.752,0,10.414-4.663,10.414-10.414V285.86
						C625.443,280.109,620.781,275.446,615.029,275.446z"/>
					<path fill="#E5E6E6" d="M615.35,275.125H418.206c-5.752,0-10.414,4.663-10.414,10.414v136.533
						c0,5.752,4.663,10.414,10.414,10.414H615.35c5.752,0,10.414-4.663,10.414-10.414V285.539
						C625.764,279.788,621.102,275.125,615.35,275.125z"/>
					<path fill="#E4E5E5" d="M615.672,274.804H418.527c-5.752,0-10.414,4.663-10.414,10.414V421.75
						c0,5.752,4.663,10.414,10.414,10.414h197.144c5.752,0,10.414-4.662,10.414-10.414V285.218
						C626.086,279.466,621.423,274.804,615.672,274.804z"/>
					<path fill="#E3E4E4" d="M615.993,274.482H418.849c-5.752,0-10.414,4.663-10.414,10.414v136.533
						c0,5.752,4.663,10.414,10.414,10.414h197.144c5.752,0,10.414-4.663,10.414-10.414V284.896
						C626.407,279.145,621.744,274.482,615.993,274.482z"/>
					<path fill="#E2E3E4" d="M616.314,274.161H419.17c-5.752,0-10.414,4.663-10.414,10.414v136.533
						c0,5.752,4.663,10.414,10.414,10.414h197.144c5.752,0,10.414-4.663,10.414-10.414V284.575
						C626.728,278.824,622.066,274.161,616.314,274.161z"/>
					<path fill="#E1E2E3" d="M616.635,273.84H419.491c-5.752,0-10.414,4.663-10.414,10.414v136.533
						c0,5.752,4.663,10.414,10.414,10.414h197.144c5.752,0,10.414-4.663,10.414-10.414V284.254
						C627.05,278.502,622.387,273.84,616.635,273.84z"/>
					<path fill="#E0E1E2" d="M616.957,273.518H419.813c-5.752,0-10.414,4.663-10.414,10.414v136.533
						c0,5.752,4.663,10.414,10.414,10.414h197.144c5.752,0,10.414-4.663,10.414-10.414V283.932
						C627.371,278.181,622.708,273.518,616.957,273.518z"/>
					<path fill="#DFE0E1" d="M617.278,273.197H420.134c-5.752,0-10.414,4.663-10.414,10.414v136.533
						c0,5.752,4.663,10.414,10.414,10.414h197.144c5.752,0,10.414-4.663,10.414-10.414V283.611
						C627.692,277.86,623.03,273.197,617.278,273.197z"/>
					<path fill="#DEDFE0" d="M617.599,272.876H420.455c-5.752,0-10.414,4.663-10.414,10.414v136.533
						c0,5.752,4.663,10.414,10.414,10.414h197.144c5.752,0,10.414-4.663,10.414-10.414V283.29
						C628.014,277.538,623.351,272.876,617.599,272.876z"/>
					<path fill="#DDDEDF" d="M617.921,272.554H420.776c-5.752,0-10.414,4.663-10.414,10.414v136.533
						c0,5.752,4.663,10.414,10.414,10.414h197.144c5.752,0,10.414-4.663,10.414-10.414V282.968
						C628.335,277.217,623.672,272.554,617.921,272.554z"/>
					<path fill="#DCDDDE" d="M618.242,272.233H421.098c-5.752,0-10.414,4.663-10.414,10.414V419.18
						c0,5.752,4.663,10.414,10.414,10.414h197.144c5.752,0,10.414-4.663,10.414-10.414V282.647
						C628.656,276.896,623.994,272.233,618.242,272.233z"/>
					<path fill="#DBDCDD" d="M618.563,271.912H421.419c-5.752,0-10.414,4.663-10.414,10.414v136.533
						c0,5.752,4.663,10.414,10.414,10.414h197.144c5.752,0,10.414-4.663,10.414-10.414V282.326
						C628.978,276.574,624.315,271.912,618.563,271.912z"/>
					<path fill="#DADBDC" d="M618.885,271.591H421.74c-5.752,0-10.414,4.663-10.414,10.414v136.533
						c0,5.752,4.663,10.414,10.414,10.414h197.144c5.752,0,10.414-4.663,10.414-10.414V282.005
						C629.299,276.253,624.636,271.591,618.885,271.591z"/>
					<path fill="#D9DADB" d="M619.206,271.269H422.062c-5.752,0-10.414,4.663-10.414,10.414v136.533
						c0,5.752,4.663,10.414,10.414,10.414h197.144c5.752,0,10.414-4.663,10.414-10.414V281.683
						C629.62,275.932,624.958,271.269,619.206,271.269z"/>
					<path fill="#D8DADA" d="M619.527,270.948H422.383c-5.752,0-10.414,4.663-10.414,10.414v136.533
						c0,5.752,4.663,10.414,10.414,10.414h197.144c5.752,0,10.414-4.663,10.414-10.414V281.362
						C629.941,275.61,625.279,270.948,619.527,270.948z"/>
					<path fill="#D7D9D9" d="M619.849,270.627H422.704c-5.752,0-10.414,4.663-10.414,10.414v136.533
						c0,5.752,4.663,10.414,10.414,10.414h197.144c5.752,0,10.414-4.663,10.414-10.414V281.041
						C630.263,275.289,625.6,270.627,619.849,270.627z"/>
					<path fill="#D6D8D9" d="M620.17,270.305H423.026c-5.752,0-10.414,4.663-10.414,10.414v136.533
						c0,5.752,4.663,10.414,10.414,10.414H620.17c5.752,0,10.414-4.663,10.414-10.414V280.719
						C630.584,274.968,625.922,270.305,620.17,270.305z"/>
					<path fill="#D5D7D8" d="M620.491,269.984H423.347c-5.752,0-10.414,4.663-10.414,10.414v136.533
						c0,5.752,4.663,10.414,10.414,10.414h197.144c5.752,0,10.414-4.663,10.414-10.414V280.398
						C630.905,274.647,626.243,269.984,620.491,269.984z"/>
					<path fill="#D4D6D7" d="M620.813,269.663H423.668c-5.752,0-10.414,4.663-10.414,10.414v136.533
						c0,5.752,4.663,10.414,10.414,10.414h197.144c5.752,0,10.414-4.663,10.414-10.414V280.077
						C631.227,274.325,626.564,269.663,620.813,269.663z"/>
					<path fill="#D3D5D6" d="M621.134,269.341H423.99c-5.752,0-10.414,4.663-10.414,10.414v136.533
						c0,5.752,4.663,10.414,10.414,10.414h197.144c5.752,0,10.414-4.663,10.414-10.414V279.755
						C631.548,274.004,626.885,269.341,621.134,269.341z"/>
					<path fill="#D2D4D5" d="M621.455,269.02H424.311c-5.752,0-10.414,4.663-10.414,10.414v136.533
						c0,5.752,4.663,10.414,10.414,10.414h197.144c5.752,0,10.414-4.663,10.414-10.414V279.434
						C631.869,273.683,627.207,269.02,621.455,269.02z"/>
					<path fill="#D1D3D4" d="M621.776,268.699H424.632c-5.752,0-10.414,4.663-10.414,10.414v136.533
						c0,5.752,4.663,10.414,10.414,10.414h197.144c5.752,0,10.414-4.663,10.414-10.414V279.113
						C632.191,273.361,627.528,268.699,621.776,268.699z"/>
				</g>
			</g>
			<path fill="#FFFFFF" d="M621.776,268.699H424.632c-5.752,0-10.414,4.663-10.414,10.414v136.533
				c0,5.752,4.663,10.414,10.414,10.414h197.144c5.752,0,10.414-4.663,10.414-10.414V279.113
				C632.191,273.361,627.528,268.699,621.776,268.699z"/>
			<rect x="432.24" y="315.758" fill="#F16680" width="181.929" height="92.312"/>
			<circle fill="#FFCE55" cx="443.123" cy="290.408" r="10.883"/>
			<rect x="466.138" y="280.434" fill="#00A79D" width="76.437" height="7.423"/>
			<rect x="466.138" y="297.156" fill="#FFCE55" width="126.45" height="3.227"/>
			<polygon fill="#FFFFFF" points="540.224,361.913 511.355,347.715 511.355,376.113 			"/>
		</g>
		<g>
			<rect x="181.284" y="122.434" fill="#5FC8D7" width="7.231" height="6.723"/>
			<rect x="177.343" y="117.11" fill="#5FC8D7" width="15.113" height="5.325"/>
			<circle fill="#00A79D" cx="184.899" cy="151.482" r="24.236"/>
			<circle fill="#8CECF4" cx="184.899" cy="151.482" r="20.62"/>
			<g>
				<path fill="#DB3931" d="M202.011,156.023c-0.046,0-0.093-0.005-0.139-0.016c-0.336-0.076-0.546-0.411-0.469-0.747
					c0.28-1.232,0.423-2.503,0.423-3.778c0-8.006-5.683-14.98-13.514-16.582c-0.338-0.069-0.556-0.399-0.486-0.736
					c0.069-0.337,0.4-0.558,0.736-0.486c8.409,1.72,14.512,9.208,14.512,17.804c0,1.368-0.153,2.733-0.454,4.055
					C202.552,155.827,202.295,156.023,202.011,156.023z"/>
			</g>
			<circle fill="#DB3931" cx="184.899" cy="151.482" r="2.465"/>
			<g>
				<path fill="#DB3931" d="M184.899,152.106c-0.345,0-0.624-0.279-0.624-0.624v-18.877c0-0.345,0.279-0.624,0.624-0.624
					c0.345,0,0.624,0.279,0.624,0.624v18.877C185.523,151.826,185.244,152.106,184.899,152.106z"/>
			</g>
			<g>
				<path fill="#DB3931" d="M198.063,158.07c-0.086,0-0.173-0.018-0.257-0.056l-13.165-5.964c-0.314-0.142-0.453-0.512-0.311-0.825
					c0.143-0.314,0.51-0.455,0.826-0.311l13.165,5.964c0.314,0.142,0.453,0.512,0.311,0.825
					C198.527,157.933,198.301,158.07,198.063,158.07z"/>
			</g>
			<circle fill="#006838" cx="184.899" cy="169.463" r="0.859"/>
			<circle fill="#006838" cx="172.185" cy="164.196" r="0.859"/>
			<circle fill="#006838" cx="166.918" cy="151.482" r="0.859"/>
			<circle fill="#006838" cx="172.185" cy="138.767" r="0.859"/>
			<circle fill="#006838" cx="197.614" cy="164.196" r="0.859"/>
			<path fill="#F16680" d="M173.044,123.468H113.05l50.658,6.157c2.718-2.382,5.884-4.154,9.336-5.17V123.468z"/>
			<path fill="#F16680" d="M126.873,136.168l28.657,6.029c0.698-2.138,1.605-4.165,2.725-6.029H126.873z"/>
			<path fill="#F16680" d="M154.126,148.867h-17.013l17.019,5.841c-0.091-0.968-0.14-1.95-0.14-2.945
				C153.993,150.785,154.038,149.819,154.126,148.867z"/>
			<path fill="#F16680" d="M145.56,161.566l12.698,5.797c-1.08-1.796-1.96-3.745-2.649-5.797H145.56z"/>
		</g>
		<g>
			<rect x="90.37" y="352.358" fill="#F16680" width="7.482" height="19.718"/>
			<path fill="#F16680" d="M127.722,354.878c-0.486-1.314-1.744-2.181-3.145-2.181l-14.407-0.553
				c2.007-2.161,2.181-7.826,2.142-10.537c-0.012-0.824-0.679-1.487-1.502-1.487l0,0c-0.594,0-1.131,0.345-1.37,0.888
				c-0.52,1.176-1.669,3.333-3.774,5.297c-2.445,2.282-4.697,6.052-4.697,6.052v19.718h2.981h0.463h14.629
				c2.182,0,3.928-1.799,3.878-3.981c-0.012-0.51-0.019-1.044-0.019-1.585c0-2.886,5.772-5.36,5.772-7.628
				C128.672,357.73,128.193,356.151,127.722,354.878z"/>
		</g>
		<g>
			<polygon fill="#FFCE55" points="172.074,223.455 125.08,223.455 125.08,315.638 196.247,315.638 196.247,247.627 			"/>
			<polygon fill="#F7941D" points="172.074,223.455 196.247,247.627 172.074,247.627 			"/>
			<rect x="135.201" y="237.002" fill="#FFFFFF" width="25.462" height="4.625"/>
			<rect x="135.201" y="258.001" fill="#FFFFFF" width="50.663" height="4.625"/>
			<rect x="135.201" y="270.319" fill="#FFFFFF" width="50.663" height="4.625"/>
			<rect x="135.201" y="282.638" fill="#FFFFFF" width="50.663" height="4.625"/>
			<rect x="135.201" y="294.956" fill="#FFFFFF" width="50.663" height="4.625"/>
		</g>
		<g>
			<path fill="#F8E4D2" d="M327.008,524.78c0,0-3.35,3.551-4.107,6.357c-0.693,2.704-1.071,3.783-2.232,3.485
				c-1.16-0.298-11.927-5.068-15.002-6.991s7.291-1.572,11.565-1.109c4.273,0.463,7.048-3.927,7.048-3.927L327.008,524.78z"/>
			<path fill="#006838" d="M322.901,531.138c0.129-0.479,0.338-0.98,0.588-1.481c-0.77-0.27-1.627-0.869-2.821-0.363
				c-2.343,1.004-7.383-1.843-9.08-3.116c-4.086-0.094-7.96,0.178-5.921,1.454c3.075,1.923,13.842,6.693,15.002,6.991
				C321.83,534.92,322.208,533.841,322.901,531.138z"/>
			<path fill="#BB4738" d="M413.093,481.62c0,0-0.288,17.181-30.229,15.82c-18.47-0.389-27.707-3.929-27.707-3.929
				s-17.013,23.685-29.297,33.066l-3.833-2.161c0,0,21.12-39.978,26.953-43.348c4.472-2.398,44.507-3.48,44.507-3.48L413.093,481.62
				z"/>
			<path opacity="0.5" fill="#BB4738" d="M342.51,488.964c0.997,5.376,2.2,12.835,1.829,18.508
				c6.179-7.504,10.819-13.961,10.819-13.961s1.551,0.586,4.598,1.306c0.476-3.519,1.441-10.482,1.767-11.461
				c0.226-0.679,0.565-2.509,0.523-4.218c-6.382,0.51-11.61,1.15-13.065,1.93C347.558,481.89,345.223,484.898,342.51,488.964z"/>
			<path fill="#F8E4D2" d="M346.051,527.862c0,0-1.333,4.696-0.71,7.535c0.633,2.719,0.795,3.85-0.372,4.121
				c-1.167,0.271-12.92,1.008-16.535,0.721c-3.615-0.287,5.743-4.759,9.748-6.32c4.005-1.561,4.441-6.736,4.441-6.736
				L346.051,527.862z"/>
			<path fill="#BB4738" d="M416.201,482.259c0,0,4.67,11.251-3.396,16.982c-8.067,5.731-50.742-5.228-50.742-5.228
				s-0.33,18.443-16.251,36.487l-4.481-1.379c0,0,9.23-39.774,14.961-48.053c9.977-3.609,37.195-3.48,37.195-3.48L416.201,482.259z"
				/>
			<path fill="#006838" d="M345.341,535.397c-0.106-0.485-0.152-1.025-0.161-1.585c-0.808,0.116-1.844-0.02-2.67,0.98
				c-1.615,1.972-7.4,1.772-9.493,1.425c-3.669,1.802-6.98,3.831-4.582,4.022c3.615,0.287,15.368-0.45,16.535-0.721
				C346.137,539.247,345.974,538.115,345.341,535.397z"/>
			<path opacity="0.5" fill="#BB4738" d="M412.805,499.241c8.066-5.732,3.396-16.982,3.396-16.982l-22.714-4.67
				c0,0-2.418-0.011-6.063,0.068c0.208,1.002,12.173,8.684,13.169,13.33c1.015,4.738-35.1,0.469-38.53,3.026
				C362.063,494.013,404.738,504.973,412.805,499.241z"/>
			<path fill="#FFBBA6" d="M360.623,459.857c0,0-1.693,0.485-2.69,0.137c-0.996-0.349-2.789-1.594-4.433-1.195
				c-1.643,0.398-3.536,3.586-4.283,4.582c-0.747,0.996,2.341,0,3.885-1.046c1.544-1.046,2.64,1.495,4.383,1.245
				c1.743-0.249,4.037-0.772,4.037-0.772L360.623,459.857z"/>
			<path fill="#FFCE55" d="M401.071,423.097c-4.544-1.081-9.073,1.883-9.869,6.485c-0.369,2.139-0.776,4.267-1.214,6.338
				c-0.515,2.435-1.091,4.848-1.766,7.051c-0.322,1.128-0.7,2.163-1.049,3.062c0,0-0.248,0.597-0.26,0.625
				c-0.532,1.28-1.24,1.625-2.46,2.273c-1.073,0.571-2.186,1.139-3.336,1.677c-2.285,1.092-4.655,2.132-7.048,3.135
				c-4.783,2.011-9.687,3.912-14.585,5.709l1.051,4.338c5.279-0.721,10.506-1.531,15.774-2.499c2.634-0.483,5.269-1.008,7.937-1.631
				c1.332-0.301,2.677-0.649,4.044-1.031c0.694-0.212,1.365-0.384,2.084-0.634l1.079-0.377l0.541-0.191
				c0.258-0.118,0.664-0.36,0.985-0.558c0.629-0.394,1.448-0.97,1.828-1.355l1.111-1.155l0.54-0.598l0.39-0.516l0.774-1.046
				c0.955-1.369,1.765-2.68,2.469-3.962c1.461-2.584,2.673-5.107,3.822-7.641c0.984-2.179,1.908-4.331,2.792-6.495
				C408.595,429.478,405.933,424.253,401.071,423.097z"/>
			<path opacity="0.5" fill="#FFCE55" d="M395.918,454.061l0.54-0.686l0.39-0.592l0.774-1.2c0.955-1.572,1.765-3.077,2.469-4.549
				c1.461-2.967,2.673-5.864,3.822-8.774c0.984-2.501,1.908-4.973,2.792-7.458c0.179-0.503,0.313-1.012,0.412-1.523
				c-0.641-2.929-2.869-5.426-6.046-6.181c-4.544-1.081-9.073,1.884-9.869,6.486c-0.369,2.139-0.776,4.267-1.214,6.338
				c-0.515,2.435-1.091,4.848-1.766,7.052c-0.322,1.128-0.7,2.163-1.049,3.061c0,0-0.248,0.597-0.26,0.626
				c-0.532,1.28-1.24,1.625-2.46,2.273c-0.007,0.004-0.015,0.007-0.021,0.011c0.742,3.078,1.609,7.273,1.682,10.242
				c0.724-0.184,1.441-0.349,2.177-0.555c0.694-0.212,1.366-0.384,2.084-0.634l1.079-0.377l0.541-0.191
				c0.258-0.118,0.664-0.36,0.985-0.558c0.225-0.141,0.473-0.307,0.717-0.478c0.44-0.351,0.867-0.723,1.111-1.007L395.918,454.061z"
				/>
			<path fill="#FFBBA6" d="M370.628,470.515c0,0-1.693,0.485-2.69,0.137c-0.996-0.349-2.789-1.594-4.433-1.195
				c-1.643,0.398-3.536,3.586-4.283,4.582c-0.747,0.996,2.341,0,3.885-1.046c1.544-1.046,2.64,1.495,4.383,1.246
				c1.743-0.249,4.037-0.772,4.037-0.772L370.628,470.515z"/>
			<path fill="#00A79D" d="M434.538,519.448v-17.476h2.906v-2.658h-61.807c-5.025,0-9.099,4.074-9.099,9.099v4.594
				c0,5.025,4.074,9.099,9.099,9.099h61.807v-2.658H434.538z"/>
			<path fill="#FFCE55" d="M414.823,458.069c0.526-7.48,1.367-15.13,0.434-22.611c-0.716-5.741-4.008-11.872-10.041-13.3
				c-3.252-0.77-5.831,0.043-8.275,1.478c-1.265,0.742-2.494,1.651-3.762,2.593c-4.541,3.373-10.589,10.336-9.136,16.977
				c0.773,3.535,1.985,5.42,4.095,8.081c2.349,2.962,3.287,6.387,3.408,10.127c0.036,1.112-1.938,12.983-3.529,15.138
				c-0.201,0.272-0.118,0.657,0.155,0.856c5.387,3.916,17.841,12.717,30.552,7.792C419.225,480.845,413.986,469.956,414.823,458.069
				z"/>
			<path fill="#FFFDEB" d="M376.894,501.972c-3.954,0-7.16,3.206-7.16,7.16v3.155c0,3.954,3.206,7.16,7.16,7.16h59.174v-17.476
				H376.894z"/>
			<path fill="#BB4738" d="M380.512,539.436v-14.672h-2.906v-2.658h61.807c5.025,0,9.099,4.074,9.099,9.099v1.79
				c0,5.025-4.074,9.099-9.099,9.099h-61.807v-2.658H380.512z"/>
			<path fill="#FEE0CF" d="M438.157,524.764c3.954,0,7.16,3.205,7.16,7.16v0.352c0,3.954-3.206,7.16-7.16,7.16h-59.174v-14.672
				H438.157z"/>
			<path fill="#FFBBA6" d="M393.315,397.188c-4.43,0.144-9.148,2.071-9.269,6.128c-0.159,5.367,1.596,6.883,1.593,8.656
				c-0.003,1.773-0.845,3.486-0.761,4c0.084,0.515,2.627-0.238,2.957,0.28c0.331,0.518,3.029,4.128,5.388,3.921
				c3.071-0.269,6.079-3.365,7.59-5.646c2.87-4.336,3.805-13.234-1.603-16.217C397.75,397.503,395.57,397.115,393.315,397.188z"/>
			<path fill="#FFBBA6" d="M403.434,422.862c-4.303-4.869-3.914-10.77-3.914-10.77s-4.98,0.158-3.913,2.894
				c1.066,2.736,0.172,9.19,0.172,9.19s-6.443,5.271-2.726,6.283c3.268,0.89,8.344-3.134,10.452-5.794
				C403.933,424.125,403.89,423.377,403.434,422.862z"/>
			<path fill="#0B5F99" d="M381.95,406.019c0,0,0.241,1.491,8.139,1.149c2.641-0.479,2.349,3.458,3.144,6.203
				c0.601,2.074,1.564-1.166,3.464-3.83c1.9-2.665,3.725,2.418,1.335,3.935c-2.39,1.517,1.86,7.947-5.301,10.777
				c3.091,1.405,10.028-0.622,15.083-4.492c5.055-3.87-1.541-19.786-5.249-23.493C398.857,392.561,380.508,390.968,381.95,406.019z"
				/>
			<g>
				<rect x="345.038" y="476.889" fill="#647FA0" width="36.113" height="3.584"/>
				<polygon fill="#7991B4" points="325.174,456.821 348.1,456.821 360.978,480.474 338.052,480.474 				"/>
				<path fill="#A2C4ED" d="M343.902,468.77c0.625,1.599,0.252,2.895-0.831,2.895c-1.084,0-2.468-1.296-3.093-2.895
					c-0.625-1.599-0.252-2.895,0.831-2.895S343.278,467.171,343.902,468.77z"/>
				<path opacity="0.5" fill="#7991B4" d="M338.052,480.474h22.926l-3.15-5.785c-11.607,1.815-21.017-2.912-26.715-6.96
					L338.052,480.474z"/>
			</g>
			<polygon fill="#FFE7C4" points="392.498,510.483 397.704,510.483 395.263,512.686 			"/>
			<polygon fill="#FFC9AE" points="413.059,528.297 418.265,528.297 415.824,530.5 			"/>
			<polygon fill="#FFE7C4" points="418.664,512.686 426.84,512.686 423.007,516.144 			"/>
			<polygon fill="#FFC9AE" points="387.621,530.37 395.796,530.37 391.963,533.829 			"/>
			<polygon fill="#FFE7C4" points="376.792,505.021 383.549,505.021 380.381,507.88 			"/>
			<polygon fill="#FFC9AE" points="430.088,534.762 436.845,534.762 433.677,537.621 			"/>
			<path opacity="0.5" fill="#FFCE55" d="M396.851,434.138c0,0,0.799,12.193,1.893,18.131c0.856,4.645-3.071,8.086-7.289,10.135
				c-0.194,1.524-0.683,4.446-1.293,7.273c6.734-1.346,19.46-4.018,19.486-4.991c0.035-1.322,2.066-14.449,1.128-17.261
				C409.839,444.612,398.24,433.978,396.851,434.138z"/>
			<path opacity="0.5" fill="#FFCE55" d="M414.823,458.069c0.019-0.266,0.04-0.533,0.059-0.8c-1.793-0.331-3.601-0.593-3.859-0.359
				c-0.53,0.481-13.266,14.883-17.337,16.792c0,0,15.369-2.957,17.337-1.788c1.819,1.081,5.132,8.818,4.205,14.275
				c1.16-0.235,2.325-0.537,3.494-0.99C419.225,480.845,413.986,469.956,414.823,458.069z"/>
			<path fill="#FFCE55" d="M414.106,444.976c-0.462-3.684-1.008-7.269-1.641-10.852c-0.822-4.656-5.561-7.534-10.091-6.179
				c-4.335,1.296-6.678,5.935-5.215,10.216c1.09,3.189,2.111,6.41,3.02,9.578c0.839,2.907,1.567,5.825,2.051,8.554
				c0.146,0.708,0.221,1.339,0.297,1.967c0.111,0.686,0.117,1.182,0.15,1.692l0.031,0.391c-0.009,0.052-0.012,0.105-0.01,0.161
				l0.019,0.161c-0.519,0.386-1.277,0.834-2.082,1.219c-1.201,0.574-2.55,1.094-3.932,1.581c-2.789,0.963-5.756,1.774-8.763,2.494
				c-6.016,1.432-12.252,2.569-18.428,3.465l0.302,5.306c6.486,0.072,12.885-0.087,19.41-0.596c3.26-0.262,6.536-0.62,9.898-1.218
				c1.686-0.313,3.389-0.67,5.167-1.193c1.793-0.568,3.63-1.159,5.825-2.625c1.117-0.908,2.416-1.765,3.461-4.108
				c0.298-0.623,0.264-0.738,0.401-1.129l0.274-0.99l0.244-1.002l0.107-0.796c0.146-1.073,0.266-2.159,0.271-3.059
				c0.041-0.959,0.067-1.913,0.031-2.782C414.837,451.639,414.517,448.287,414.106,444.976z"/>
			<path opacity="0.5" fill="#0B5F99" d="M400.593,405.216c-0.758-3.034-2.989-3.034-7.718-0.446
				c-3.57,1.954-8.612,0.195-10.985-0.861c-0.022,0.667-0.012,1.362,0.06,2.11c0,0,0.241,1.491,8.139,1.149
				c2.641-0.479,2.349,3.458,3.144,6.203c0.601,2.074,1.564-1.166,3.464-3.83c1.9-2.665,3.725,2.418,1.335,3.935
				c-2.39,1.516,1.86,7.947-5.301,10.777c3.091,1.405,10.028-0.622,15.083-4.492c2.243-1.717,2.187-5.808,1.112-10.151
				C405.352,413.299,401.326,408.149,400.593,405.216z"/>
			<path opacity="0.5" fill="#F4E0CB" d="M369.734,509.132v3.155c0,2.417,1.206,4.545,3.041,5.842
				c-2.53-7.441,0.425-10.658,4.017-10.658c3.263,0,50.576,0,59.276,0v-5.5h-59.174
				C372.939,501.972,369.734,505.178,369.734,509.132z"/>
			<path opacity="0.5" fill="#FEE0CF" d="M438.157,524.764h-59.174v3.533c8.585,0,54.525,0,57.862,0c3.057,0,7.18,3.38,7.494,7.529
				c0.605-1.05,0.977-2.252,0.977-3.551v-0.352C445.317,527.969,442.111,524.764,438.157,524.764z"/>
		</g>
		<g>
			<path fill="#FFBBA6" d="M444.834,165.092v-0.676c0-2.754-3.401-4.052-5.235-1.998l-11.955,13.384
				c-0.39,0.35-0.844,0.651-1.348,0.869c-0.157,0.093-0.648,0.217-1.06,0.337l-1.258,0.359l-13.117,4.161
				c-1.184,0.376-2.444,0.473-3.666,0.246c-0.681-0.126-1.385-0.303-1.952-0.546c-1.664-0.713-2.376-1.426-3.565-1.109
				c-1.188,0.317-5.862,2.456-6.258,4.515c-0.396,2.059,4.594-1.167,5.783-1.059c1.188,0.108,1.743,1.961,3.327,1.747
				c1.584-0.213,15.376-1.749,15.376-1.749l5.222-0.574l1.306-0.144c0.441-0.055,0.811-0.068,1.495-0.208
				c1.178-0.236,2.327-0.669,3.393-1.274c0.532-0.304,1.043-0.652,1.526-1.04l1.061-0.824l2.074-1.607l4.147-3.214l0,0
				C442.716,172.685,444.834,168.365,444.834,165.092z"/>
			<path opacity="0.5" fill="#FFBBA6" d="M441.742,162.976c-0.48-0.353-1.007-0.715-1.53-1.061
				c-0.214,0.142-0.426,0.294-0.613,0.503l-7.816,8.75c0.17,2.557,0.47,6.315-0.059,7.222c-0.748,1.282-5.009,3.132-8.081,4.774
				l1.484-0.163l1.306-0.144c0.441-0.055,0.812-0.068,1.495-0.208c1.178-0.236,2.327-0.669,3.393-1.274
				c0.532-0.304,1.043-0.652,1.526-1.04l1.061-0.824l2.074-1.607l4.147-3.214c1.46-1.132,2.755-3.005,3.619-5.007
				C443.392,166.87,442.775,163.737,441.742,162.976z"/>
			<path fill="#BE1E2D" d="M421.867,141.986c0,0,9.44-6.404,17.45-0.723c7.077,5.02,11.749-2.384,16.73-0.956
				c4.98,1.428,3.959,8.962,9.067,11.772c3.193,1.757,6.574,2.906,10.259,2.609c3.58-0.289,6.97-1.251,9.443,2.073
				c2.099,2.821,2.97,6.718,2.961,10.188c-0.012,4.688-3.229,7.66-7.411,9.18c-5.25,1.908-10.995,2.471-15.251-1.745
				c-4.597-4.555-3.525-6.965-9.884-8.641c-6.359-1.677-16.519,7.04-23.922-1.405c-4.633-4.087-1.624-13.948-3.894-16.552
				C425.142,145.183,420.167,145.346,421.867,141.986z"/>
			<path opacity="0.5" fill="#BE1E2D" d="M484.815,156.761c-2.473-3.324-5.862-2.362-9.443-2.073
				c-0.98,0.079-1.938,0.049-2.877-0.061c0.278,2.207-0.113,4.471-2.2,6.003c-4.673,3.431-12.116-6.2-14.731-8.995
				c-2.616-2.795-7.25-2.916-12.299,2.622c-3.731,4.093-10.306,6.857-13.49,8.024c0.386,0.774,0.877,1.478,1.533,2.058
				c7.403,8.445,17.563-0.272,23.922,1.405c6.359,1.677,5.287,4.087,9.884,8.641c4.255,4.216,10.001,3.653,15.251,1.745
				c4.183-1.52,7.399-4.492,7.411-9.18C487.785,163.479,486.913,159.583,484.815,156.761z"/>
			<path fill="#FFBBA6" d="M545.833,183.517c0,0,3.217-0.847,4.318-2.117c1.101-1.27,2.201-2.286,2.963-1.27
				c0.762,1.016,5.334,7.366,6.604,8.043c1.27,0.677,2.879,2.758,2.117,3.58c-0.762,0.822-4.826-0.956-7.281-3.072
				c-2.455-2.117-8.128-2.032-8.128-2.032L545.833,183.517z"/>
			<path fill="#FFBBA6" d="M529.155,153.575c0,0,1.632-2.901,1.486-4.576c-0.146-1.675-0.11-3.173,1.151-3.013
				c1.261,0.16,9.007,1.296,10.377,0.855c1.371-0.441,3.986-0.148,4.047,0.972c0.06,1.12-4.047,2.802-7.277,3.093
				c-3.231,0.29-7.12,4.425-7.12,4.425L529.155,153.575z"/>
			<path fill="#00998A" d="M471.332,180.153c0,0,8.88-10.029,42.805-1.926c0.429-8.899,14.932-25.802,14.932-25.802l4.679,1.553
				c0,0-13.453,30.261-16.378,35.155c-4.485,0.816-27.745,4.117-45.235,1.632C469.408,187.297,471.332,180.153,471.332,180.153z"/>
			<path fill="#00A79D" d="M546.813,182.606l-6.158,0.24l0,0c0,0-9.857-1.355-14.131-1.026c-4.274,0.329-11.102,2.01-11.102,2.01
				s-18.238-8.823-27.207-10.455c-8.969-1.631-15.68,2.22-15.68,2.22c-1.755,4.69-2.348,11.294-0.398,15.169
				c6.434,2.447,36.266,0.815,42.7,0.815c6.434,0,32.951-3.671,32.951-3.671L546.813,182.606z"/>
			<path opacity="0.5" fill="#00A79D" d="M534.736,189.619c-0.041,0.001-25.976,0.524-32.524,0
				c-6.554-0.525-24.577-2.088-24.795-5.789c-0.162-2.757-1.698-7.207-2.471-9.297c-1.531,0.563-2.411,1.062-2.411,1.062
				c-1.755,4.691-2.348,11.294-0.398,15.169c6.434,2.447,36.266,0.815,42.7,0.815C518.201,191.579,527.052,190.576,534.736,189.619z
				"/>
			<path fill="#F16680" d="M441.279,155.964c0,0-4.905,2.829-5.282,6.602c-0.377,3.772-4.716,15.656,0,17.165
				c4.716,1.509,7.545-2.075,11.318,1.886c3.773,3.961,11.318,7.734,25.842,9.997c1.509-4.904,2.064-9.054,0-17.165
				c-3.018-1.32-6.98-0.943-14.147-7.545C451.842,160.302,446.56,152.568,441.279,155.964z"/>
			<path fill="#FFBBA6" d="M424.2,143.772c-2.997,1.695-5.499,4.789-4.005,7.777c1.977,3.953,3.776,4.423,4.463,5.711
				c0.687,1.288,0.773,2.833,1.03,3.177c0.258,0.344,1.717-1.116,2.146-0.859c0.43,0.257,3.692,1.908,5.238,0.911
				c2.011-1.297,2.881-4.625,3.035-6.824c0.293-4.178-2.522-10.973-7.409-11.196C427.378,142.409,425.725,142.909,424.2,143.772z"/>
			<path fill="#FFBBA6" d="M441.118,157.614c-4.558-1.218-7.222-5.049-7.222-5.049s-2.906,2.046-1.198,3.258
				c1.708,1.212,3.704,5.409,3.704,5.409s-2.015,7.916,0.596,7.063c2.313-0.756,4.638-7.297,4.835-9.697
				C441.872,158.136,441.565,157.734,441.118,157.614z"/>
			<path fill="#BE1E2D" d="M418.047,152.834c0,0,3.083,2.294,7.507-1.199c1.073-1.214,3.217,1.254,4.022,3.707
				c0.804,2.453,0.67-2.193,0.804-4.026c0.134-1.833,4.419,1.54,2.344,4.545c0.997,0.921,2.483,1.72,4.628-0.519
				c2.145-2.24,0.634-6.932-1.225-10.283c-1.859-3.351-5.344-7.105-11.109-4.692C419.254,142.78,414.561,147.338,418.047,152.834z"
				/>
			<g>
				<rect x="388.69" y="188.229" fill="#5FC8D7" width="28.523" height="2.755"/>
				<polygon fill="#5FC8D7" points="378.761,162.795 382.027,162.795 391.853,190.984 388.588,190.984 				"/>
			</g>
			<path opacity="0.5" fill="#F16680" d="M473.157,191.615c0.355-1.153,0.654-2.264,0.882-3.395
				c-5.23-0.527-19.102-4.809-19.879-11.331c-0.375-11.275-5.796-15.47-5.796-15.47l-2.096,16.283c0,0,1.107,2.462,2.367,5.147
				C452.749,186.349,460.149,189.588,473.157,191.615z"/>
			<path fill="#FFBBA6" d="M449.412,163.045c-0.306-0.572-0.654-1.116-1.048-1.626c-1.514-1.962-4.892-1.996-6.015,0.072
				c-1.475,2.715-1.24,6.583-1.104,9.553c0.185,4.035,1.506,8.044,1.457,12.053c-1.169,0.152-5.681,0.934-6.792,1.024
				c-2.326,0.189-4.647,0.435-6.963,0.714c-2.486,0.299-5.09,0.959-7.592,1.032c0,0-2.752,0.079-4.301-0.585
				c-1.549-0.664-2.213-1.328-3.319-1.033c-1.106,0.295-5.458,2.286-5.827,4.204c-0.369,1.918,4.278-1.086,5.385-0.985
				c1.106,0.1,1.623,1.826,3.098,1.627c1.475-0.199,4.158-0.834,5.043-0.834c8.701,1.601,19.573,1.43,24.599,1.235
				c1.673-0.065,3.092-1.239,3.453-2.873C450.942,180.006,452.943,169.638,449.412,163.045z"/>
			<path opacity="0.5" fill="#FFBBA6" d="M446.825,186.326c-2.729,2.401-14.363,3.099-14.536,3.109
				c5.535,0.285,10.707,0.179,13.743,0.061c1.673-0.065,3.092-1.239,3.453-2.874c1.456-6.616,3.458-16.984-0.073-23.577
				c-0.306-0.572-0.654-1.116-1.048-1.626C448.364,161.419,452.44,179.388,446.825,186.326z"/>
		</g>
		<g>
			<path fill="#F16680" d="M276.042,138.529c-4.153-7.512-21.944-6.827-21.944-6.827s-17.791-0.685-21.944,6.827
				c-2.976,5.383,2.81,23.945,4.298,35.454c3.803,0.742,13.303,1.856,17.646,1.856c4.342,0,13.843-1.114,17.645-1.856
				C273.231,162.474,279.018,143.912,276.042,138.529z"/>
			<path opacity="0.5" fill="#F16680" d="M237.123,146.772c-1.694,0.648-3.2,3.653-4.457,7.371c1.259,6.705,3.05,14.137,3.787,19.84
				c3.803,0.742,13.304,1.856,17.646,1.856c4.342,0,13.843-1.114,17.645-1.856c0.431-3.331,1.223-7.257,2.057-11.279
				c-1.79-1.353-6.038-3.042-16.012-5.022C239.695,154.088,237.123,146.772,237.123,146.772z"/>
			<g>
				<path fill="#F16680" d="M274.098,136.25c0,0,7.044,6.049,10.153,21.982c2.691,13.788-8.233,15.079-12.508,16.549
					c-2.939,0.534-0.555-6.893-0.555-6.893l5.693-3.8c0,0-4.529-12.64-5.866-17.317C269.679,142.095,274.098,136.25,274.098,136.25z
					"/>
				<path opacity="0.5" fill="#F16680" d="M278.367,163.511c-1.336-0.184-3.3-4.558-3.305-4.567
					c1.021,2.919,1.819,5.145,1.819,5.145l-5.693,3.8c0,0-0.446,1.392-0.714,2.927c6.208-1.494,8.021-5.299,8.622-5.496
					C279.704,165.12,279.704,163.695,278.367,163.511z"/>
			</g>
			<g>
				<path fill="#F16680" d="M234.078,136.25c0,0-7.044,6.049-10.153,21.982c-2.691,13.788,8.233,15.079,12.508,16.549
					c2.939,0.534,0.555-6.893,0.555-6.893l-5.693-3.8c0,0,4.529-12.64,5.865-17.317C238.497,142.095,234.078,136.25,234.078,136.25z
					"/>
				<path opacity="0.5" fill="#F16680" d="M229.809,163.511c1.336-0.184,3.3-4.558,3.305-4.567
					c-1.021,2.919-1.818,5.145-1.818,5.145l5.693,3.8c0,0,0.446,1.392,0.714,2.927c-6.208-1.494-8.021-5.299-8.622-5.496
					C228.472,165.12,228.472,163.695,229.809,163.511z"/>
			</g>
			<path fill="#594A42" d="M282.572,223.873c0,0,0.422,4.087,4.953,5.749c4.531,1.662,6.933,1.133,7.345,2.947
				c0.412,1.813,0,1.927,0,1.927s-11.876,0.529-14.966,0c-3.089-0.529-1.167-10.087-1.167-10.087L282.572,223.873z"/>
			<path fill="#594A42" d="M226.093,223.873c0,0-0.422,4.087-4.953,5.749c-4.531,1.662-6.933,1.133-7.345,2.947
				c-0.412,1.813,0,1.927,0,1.927s11.876,0.529,14.966,0c3.089-0.529,1.167-10.087,1.167-10.087L226.093,223.873z"/>
			<path fill="#877F7D" d="M285.14,186.402c-0.214-4.445-3.05-8.326-7.214-9.898c-4.291-1.62-8.397-2.521-8.397-2.521l-15.428-1.614
				l-15.43,1.614c0,0-4.105,0.902-8.396,2.521c-4.163,1.571-6.999,5.453-7.214,9.898c-0.529,10.949,0.65,30.989,1.038,38.966
				c2.362,1.736,6.7,1.157,6.7,1.157s3.929-14.987,4.098-28.493c1.181-8.49,6.35-11.77,19.204-11.77
				c12.852,0,18.022,3.28,19.203,11.77c0.169,13.506,4.098,28.493,4.098,28.493s4.338,0.579,6.7-1.157
				C284.49,217.39,285.669,197.351,285.14,186.402z"/>
			<path fill="#FFBBA6" d="M257.93,131.397c-1.275-0.802-1.588-4.696-1.588-4.696s-3.236-0.672-4.091,0
				c0.183,2.565-1.491,4.696-1.491,4.696c-2.809,3.185,1.533,4.854,3.585,4.854c2.052,0,4.377-1.083,4.854-2.516
				S257.93,131.397,257.93,131.397z"/>
			<path opacity="0.5" fill="#FFBBA6" d="M252.251,126.7c0.061,0.86-0.093,1.661-0.316,2.359c1.539,0.786,3.674,1.701,5.548,1.885
				c-0.903-1.293-1.141-4.244-1.141-4.244S253.106,126.029,252.251,126.7z"/>
			<path fill="#FFBBA6" d="M262.425,110.401c-3.222-5.721-13.223-5.754-16.463,0c-1.417,2.516-0.923,6.11-0.169,8.751
				c1.041,3.649,3.258,7.066,6.595,8.844c0.837,0.445,2.391,0.527,3.35,0.201c3.469-1.178,5.395-4.72,6.565-8.118
				c0.969-2.813,1.614-6.636,0.247-9.439C262.511,110.559,262.47,110.479,262.425,110.401z"/>
			<path fill="#FFBBA6" d="M262.063,118.847c0,0,1.84-2.199,2.983-0.878c1.142,1.322-1.309,4.952-2.602,5.034
				C261.151,123.084,260.921,121.068,262.063,118.847z"/>
			<path fill="#FFBBA6" d="M246.33,118.847c0,0-1.84-2.199-2.983-0.878c-1.142,1.322,1.309,4.952,2.602,5.034
				S247.472,121.068,246.33,118.847z"/>
			<path fill="#594A42" d="M247.81,112.972c0,0,11.521,5.446,16.752,3.032c3.32-1.71,4.728-8.645,3.42-9.905
				c-1.308-1.26-2.314-0.959-3.923-0.757c-1.61,0.201-2.917-1.71-3.823-2.817c-0.905-1.107-0.704-0.302-2.515,0.604
				c-1.98,0.989-4.28,0.123-6.363,0.457c-3.948,0.634-6.289,3.682-7.267,7.321c-0.48,1.788-0.603,3.671-0.236,5.493
				c0.132,0.653,2.882,6.329,3.192,5.938C248.645,120.325,248.662,117.69,247.81,112.972z"/>
			<path fill="#594A42" d="M260.67,114.476c0,0-1.331,6.274,0.656,7.88c1.49-2.567,2.484-5.05,2.484-7.335
				C263.81,112.736,260.67,114.476,260.67,114.476z"/>
			<path opacity="0.5" fill="#FC957A" d="M256.313,121.533c-0.354-0.739-1.214-2.204-1.722-3.055
				c-0.154-0.258-0.539-0.21-0.625,0.078c-0.376,1.252-1.028,3.678-0.472,3.8C254.246,122.523,256.83,122.614,256.313,121.533z"/>
			<path opacity="0.5" fill="#594A42" d="M264.562,116.004c2.303-1.186,3.683-4.884,3.878-7.461
				c-0.998,2.188-3.257,5.637-7.114,5.299c-5.463-0.478-8.384-2.761-10.918-3.496s-4.35,0.752-4.592,3.519
				c-0.138,1.575-1.177,1.664-2.114,1.383c0.035,0.385,0.078,0.77,0.155,1.151c0.131,0.653,2.882,6.329,3.192,5.938
				c1.597-2.012,1.614-4.648,0.762-9.366C247.81,112.972,259.331,118.418,264.562,116.004z"/>
			<path opacity="0.5" fill="#877F7D" d="M277.678,221.93c-1.457-1.942-1.457-18.589-1.91-23.583
				c-0.453-4.994-1.072-5.688,1.112-7.214c2.185-1.526-2.184-1.249-3.988-1.526c-1.803-0.277-4.578-3.468-7.075-4.578
				c-2.497-1.11-6.797-1.11-5.797-2.219c1-1.11,3.855-1.526,2.33-1.942c-1.526-0.416-3.329-1.526-1.665-2.219
				c1.665-0.694,12.208-2.81,12.208-2.81c0.278-0.225,1.521-0.198,1.736-0.467c-2.879-0.901-5.099-1.39-5.099-1.39l-15.428-1.614
				l-15.43,1.614c0,0-2.222,0.489-5.104,1.391c0.219,0.267,1.458,0.24,1.736,0.465c0,0,10.543,2.116,12.208,2.81
				c1.665,0.694-0.139,1.803-1.665,2.219c-1.526,0.416,1.33,0.832,2.33,1.942c1,1.11-3.301,1.11-5.798,2.219
				c-2.497,1.11-5.271,4.3-7.075,4.578c-1.803,0.277-6.173,0-3.988,1.526c2.185,1.526,1.566,2.22,1.112,7.214
				c-0.453,4.994-0.453,21.641-1.91,23.583c-0.966,1.287-3.91,1.357-6.514,1.5c0.035,0.698,0.069,1.358,0.097,1.937
				c2.362,1.736,6.7,1.157,6.7,1.157s3.929-14.987,4.098-28.493c1.181-8.49,6.35-11.77,19.204-11.77
				c12.852,0,18.022,3.28,19.203,11.77c0.169,13.506,4.098,28.493,4.098,28.493s4.338,0.579,6.7-1.157
				c0.028-0.579,0.061-1.239,0.097-1.937C281.594,223.287,278.645,223.219,277.678,221.93z"/>
			<g>
				<polygon fill="#DDC2BF" points="272.18,175.839 236.016,175.839 232.428,154.799 275.768,154.799 				"/>
				<path fill="#FCE2E0" d="M257.674,166.527c-0.424,1.11-1.988,1.833-3.576,1.833s-3.151-0.723-3.576-1.833
					c-0.556-1.455,0.964-3.016,3.576-3.016C256.71,163.511,258.231,165.071,257.674,166.527z"/>
				<path opacity="0.5" fill="#DDC2BF" d="M236.016,175.839h36.164l0.369-2.161c-18.802,0.216-32.929-9.941-39.602-15.833
					L236.016,175.839z"/>
			</g>
		</g>
		<g>
			<g>
				<path fill="#FFFFFF" d="M292.171,354.336h-144.21c-6.114,0-11.071,4.957-11.071,11.071v91.446
					c0,6.114,4.956,11.071,11.071,11.071h144.21c6.115,0,11.071-4.957,11.071-11.071v-91.446
					C303.242,359.293,298.285,354.336,292.171,354.336z"/>
				<path fill="#FEFEFE" d="M292.359,354.148h-144.21c-6.114,0-11.071,4.957-11.071,11.071v91.446
					c0,6.114,4.956,11.071,11.071,11.071h144.21c6.115,0,11.071-4.957,11.071-11.071v-91.446
					C303.429,359.105,298.473,354.148,292.359,354.148z"/>
				<path fill="#FDFDFD" d="M292.546,353.96h-144.21c-6.114,0-11.071,4.957-11.071,11.071v91.446
					c0,6.114,4.956,11.071,11.071,11.071h144.21c6.115,0,11.071-4.957,11.071-11.071v-91.446
					C303.617,358.917,298.661,353.96,292.546,353.96z"/>
				<path fill="#FCFCFC" d="M292.734,353.772h-144.21c-6.114,0-11.071,4.957-11.071,11.071v91.446
					c0,6.114,4.956,11.071,11.071,11.071h144.21c6.115,0,11.071-4.957,11.071-11.071v-91.446
					C303.805,358.73,298.849,353.772,292.734,353.772z"/>
				<path fill="#FBFBFB" d="M292.922,353.585h-144.21c-6.114,0-11.071,4.957-11.071,11.071v91.446
					c0,6.114,4.956,11.071,11.071,11.071h144.21c6.115,0,11.071-4.957,11.071-11.071v-91.446
					C303.993,358.542,299.037,353.585,292.922,353.585z"/>
				<path fill="#FAFAFA" d="M293.11,353.397H148.9c-6.114,0-11.071,4.957-11.071,11.071v91.446c0,6.114,4.956,11.071,11.071,11.071
					h144.21c6.114,0,11.071-4.957,11.071-11.071v-91.446C304.181,358.354,299.225,353.397,293.11,353.397z"/>
				<path fill="#F9F9FA" d="M293.298,353.209h-144.21c-6.114,0-11.071,4.957-11.071,11.071v91.446
					c0,6.114,4.956,11.071,11.071,11.071h144.21c6.115,0,11.071-4.957,11.071-11.071V364.28
					C304.369,358.166,299.412,353.209,293.298,353.209z"/>
				<path fill="#F8F8F9" d="M293.486,353.021h-144.21c-6.114,0-11.071,4.957-11.071,11.071v91.446
					c0,6.114,4.956,11.071,11.071,11.071h144.21c6.114,0,11.071-4.957,11.071-11.071v-91.446
					C304.557,357.978,299.6,353.021,293.486,353.021z"/>
				<path fill="#F7F8F8" d="M293.674,352.833h-144.21c-6.114,0-11.071,4.957-11.071,11.071v91.446
					c0,6.114,4.956,11.071,11.071,11.071h144.21c6.114,0,11.071-4.957,11.071-11.071v-91.446
					C304.745,357.79,299.788,352.833,293.674,352.833z"/>
				<path fill="#F6F7F7" d="M293.862,352.645h-144.21c-6.114,0-11.071,4.957-11.071,11.071v91.446
					c0,6.114,4.956,11.071,11.071,11.071h144.21c6.114,0,11.071-4.957,11.071-11.071v-91.446
					C304.932,357.602,299.976,352.645,293.862,352.645z"/>
				<path fill="#F5F6F6" d="M294.049,352.457h-144.21c-6.114,0-11.071,4.957-11.071,11.071v91.446
					c0,6.114,4.956,11.071,11.071,11.071h144.21c6.114,0,11.071-4.957,11.071-11.071v-91.446
					C305.12,357.414,300.164,352.457,294.049,352.457z"/>
				<path fill="#F4F5F5" d="M294.237,352.269h-144.21c-6.114,0-11.071,4.957-11.071,11.071v91.446
					c0,6.114,4.956,11.071,11.071,11.071h144.21c6.114,0,11.071-4.957,11.071-11.071v-91.446
					C305.308,357.226,300.352,352.269,294.237,352.269z"/>
				<path fill="#F3F4F4" d="M294.425,352.082h-144.21c-6.114,0-11.071,4.957-11.071,11.071v91.446
					c0,6.114,4.956,11.071,11.071,11.071h144.21c6.114,0,11.071-4.957,11.071-11.071v-91.446
					C305.496,357.039,300.54,352.082,294.425,352.082z"/>
				<path fill="#F2F3F3" d="M294.613,351.894h-144.21c-6.114,0-11.071,4.957-11.071,11.071v91.446
					c0,6.114,4.956,11.071,11.071,11.071h144.21c6.114,0,11.071-4.957,11.071-11.071v-91.446
					C305.684,356.851,300.728,351.894,294.613,351.894z"/>
				<path fill="#F1F2F2" d="M294.801,351.706h-144.21c-6.114,0-11.071,4.957-11.071,11.071v91.446
					c0,6.114,4.956,11.071,11.071,11.071h144.21c6.114,0,11.071-4.957,11.071-11.071v-91.446
					C305.872,356.663,300.915,351.706,294.801,351.706z"/>
				<path fill="#F0F1F1" d="M294.989,351.518h-144.21c-6.114,0-11.071,4.957-11.071,11.071v91.446
					c0,6.114,4.956,11.071,11.071,11.071h144.21c6.114,0,11.071-4.957,11.071-11.071v-91.446
					C306.06,356.475,301.103,351.518,294.989,351.518z"/>
				<path fill="#EFF0F0" d="M295.177,351.33h-144.21c-6.114,0-11.071,4.957-11.071,11.071v91.446
					c0,6.114,4.956,11.071,11.071,11.071h144.21c6.114,0,11.071-4.957,11.071-11.071v-91.446
					C306.248,356.287,301.291,351.33,295.177,351.33z"/>
				<path fill="#EEEFEF" d="M295.365,351.142h-144.21c-6.114,0-11.071,4.957-11.071,11.071v91.446
					c0,6.114,4.956,11.071,11.071,11.071h144.21c6.114,0,11.071-4.957,11.071-11.071v-91.446
					C306.435,356.099,301.479,351.142,295.365,351.142z"/>
				<path fill="#EDEEEF" d="M295.553,350.954h-144.21c-6.114,0-11.071,4.957-11.071,11.071v91.446
					c0,6.114,4.956,11.071,11.071,11.071h144.21c6.114,0,11.071-4.957,11.071-11.071v-91.446
					C306.623,355.911,301.667,350.954,295.553,350.954z"/>
				<path fill="#ECEDEE" d="M295.74,350.766H151.53c-6.114,0-11.071,4.957-11.071,11.071v91.446c0,6.114,4.956,11.071,11.071,11.071
					h144.21c6.114,0,11.071-4.957,11.071-11.071v-91.446C306.811,355.723,301.855,350.766,295.74,350.766z"/>
				<path fill="#EBECED" d="M295.928,350.579h-144.21c-6.114,0-11.071,4.957-11.071,11.071v91.446
					c0,6.114,4.956,11.071,11.071,11.071h144.21c6.114,0,11.071-4.957,11.071-11.071V361.65
					C306.999,355.535,302.043,350.579,295.928,350.579z"/>
				<path fill="#EAEBEC" d="M296.116,350.391h-144.21c-6.114,0-11.071,4.957-11.071,11.071v91.446
					c0,6.114,4.956,11.071,11.071,11.071h144.21c6.114,0,11.071-4.957,11.071-11.071v-91.446
					C307.187,355.348,302.231,350.391,296.116,350.391z"/>
				<path fill="#E9EAEB" d="M296.304,350.203h-144.21c-6.114,0-11.071,4.957-11.071,11.071v91.446
					c0,6.114,4.956,11.071,11.071,11.071h144.21c6.114,0,11.071-4.957,11.071-11.071v-91.446
					C307.375,355.16,302.418,350.203,296.304,350.203z"/>
				<path fill="#E8E9EA" d="M296.492,350.015h-144.21c-6.114,0-11.071,4.957-11.071,11.071v91.446
					c0,6.114,4.956,11.071,11.071,11.071h144.21c6.114,0,11.071-4.957,11.071-11.071v-91.446
					C307.563,354.972,302.606,350.015,296.492,350.015z"/>
				<path fill="#E8E9E9" d="M296.68,349.827H152.47c-6.114,0-11.071,4.957-11.071,11.071v91.446c0,6.114,4.956,11.071,11.071,11.071
					h144.21c6.114,0,11.071-4.957,11.071-11.071v-91.446C307.751,354.784,302.794,349.827,296.68,349.827z"/>
				<path fill="#E7E8E8" d="M296.868,349.639h-144.21c-6.114,0-11.071,4.957-11.071,11.071v91.446
					c0,6.114,4.956,11.071,11.071,11.071h144.21c6.114,0,11.071-4.957,11.071-11.071V360.71
					C307.938,354.596,302.982,349.639,296.868,349.639z"/>
				<path fill="#E6E7E7" d="M297.056,349.451h-144.21c-6.114,0-11.071,4.957-11.071,11.071v91.446
					c0,6.114,4.956,11.071,11.071,11.071h144.21c6.114,0,11.071-4.957,11.071-11.071v-91.446
					C308.126,354.408,303.17,349.451,297.056,349.451z"/>
				<path fill="#E5E6E6" d="M297.243,349.264h-144.21c-6.114,0-11.071,4.957-11.071,11.071v91.446
					c0,6.114,4.956,11.071,11.071,11.071h144.21c6.114,0,11.071-4.957,11.071-11.071v-91.446
					C308.314,354.22,303.358,349.264,297.243,349.264z"/>
				<path fill="#E4E5E5" d="M297.431,349.076h-144.21c-6.114,0-11.071,4.957-11.071,11.071v91.446
					c0,6.114,4.956,11.071,11.071,11.071h144.21c6.114,0,11.071-4.957,11.071-11.071v-91.446
					C308.502,354.032,303.546,349.076,297.431,349.076z"/>
				<path fill="#E3E4E4" d="M297.619,348.888h-144.21c-6.114,0-11.071,4.957-11.071,11.071v91.446
					c0,6.114,4.956,11.071,11.071,11.071h144.21c6.114,0,11.071-4.957,11.071-11.071v-91.446
					C308.69,353.845,303.734,348.888,297.619,348.888z"/>
				<path fill="#E2E3E4" d="M297.807,348.7h-144.21c-6.114,0-11.071,4.957-11.071,11.071v91.446c0,6.114,4.956,11.071,11.071,11.071
					h144.21c6.114,0,11.071-4.957,11.071-11.071v-91.446C308.878,353.657,303.922,348.7,297.807,348.7z"/>
				<path fill="#E1E2E3" d="M297.995,348.512h-144.21c-6.114,0-11.071,4.957-11.071,11.071v91.446
					c0,6.114,4.956,11.071,11.071,11.071h144.21c6.114,0,11.071-4.957,11.071-11.071v-91.446
					C309.066,353.469,304.109,348.512,297.995,348.512z"/>
				<path fill="#E0E1E2" d="M298.183,348.324h-144.21c-6.114,0-11.071,4.957-11.071,11.071v91.446
					c0,6.114,4.956,11.071,11.071,11.071h144.21c6.114,0,11.071-4.957,11.071-11.071v-91.446
					C309.254,353.281,304.297,348.324,298.183,348.324z"/>
				<path fill="#DFE0E1" d="M298.371,348.136h-144.21c-6.114,0-11.071,4.957-11.071,11.071v91.446
					c0,6.114,4.956,11.071,11.071,11.071h144.21c6.114,0,11.071-4.957,11.071-11.071v-91.446
					C309.441,353.093,304.485,348.136,298.371,348.136z"/>
				<path fill="#DEDFE0" d="M298.559,347.948h-144.21c-6.114,0-11.071,4.957-11.071,11.071v91.446
					c0,6.114,4.956,11.071,11.071,11.071h144.21c6.114,0,11.071-4.957,11.071-11.071v-91.446
					C309.629,352.905,304.673,347.948,298.559,347.948z"/>
				<path fill="#DDDEDF" d="M298.747,347.761h-144.21c-6.114,0-11.071,4.957-11.071,11.071v91.446
					c0,6.114,4.956,11.071,11.071,11.071h144.21c6.114,0,11.071-4.957,11.071-11.071v-91.446
					C309.817,352.717,304.861,347.761,298.747,347.761z"/>
				<path fill="#DCDDDE" d="M298.934,347.573h-144.21c-6.114,0-11.071,4.957-11.071,11.071v91.446
					c0,6.114,4.956,11.071,11.071,11.071h144.21c6.114,0,11.071-4.957,11.071-11.071v-91.446
					C310.005,352.529,305.049,347.573,298.934,347.573z"/>
				<path fill="#DBDCDD" d="M299.122,347.385h-144.21c-6.114,0-11.071,4.957-11.071,11.071v91.446
					c0,6.114,4.956,11.071,11.071,11.071h144.21c6.114,0,11.071-4.957,11.071-11.071v-91.446
					C310.193,352.341,305.237,347.385,299.122,347.385z"/>
				<path fill="#DADBDC" d="M299.31,347.197H155.1c-6.114,0-11.071,4.957-11.071,11.071v91.446c0,6.114,4.956,11.071,11.071,11.071
					h144.21c6.114,0,11.071-4.957,11.071-11.071v-91.446C310.381,352.154,305.424,347.197,299.31,347.197z"/>
				<path fill="#D9DADB" d="M299.498,347.009h-144.21c-6.114,0-11.071,4.957-11.071,11.071v91.446
					c0,6.114,4.956,11.071,11.071,11.071h144.21c6.114,0,11.071-4.957,11.071-11.071V358.08
					C310.569,351.966,305.612,347.009,299.498,347.009z"/>
				<path fill="#D8DADA" d="M299.686,346.821h-144.21c-6.114,0-11.071,4.956-11.071,11.071v91.446
					c0,6.115,4.956,11.071,11.071,11.071h144.21c6.114,0,11.071-4.957,11.071-11.071v-91.446
					C310.757,351.778,305.8,346.821,299.686,346.821z"/>
				<path fill="#D7D9D9" d="M299.874,346.633h-144.21c-6.114,0-11.071,4.956-11.071,11.071v91.446
					c0,6.114,4.956,11.071,11.071,11.071h144.21c6.114,0,11.071-4.957,11.071-11.071v-91.446
					C310.944,351.59,305.988,346.633,299.874,346.633z"/>
				<path fill="#D6D8D9" d="M300.062,346.446h-144.21c-6.114,0-11.071,4.956-11.071,11.071v91.446
					c0,6.114,4.956,11.071,11.071,11.071h144.21c6.114,0,11.071-4.957,11.071-11.071v-91.446
					C311.132,351.402,306.176,346.446,300.062,346.446z"/>
				<path fill="#D5D7D8" d="M300.25,346.258H156.04c-6.114,0-11.071,4.956-11.071,11.071v91.446c0,6.115,4.956,11.071,11.071,11.071
					h144.21c6.114,0,11.071-4.957,11.071-11.071v-91.446C311.32,351.214,306.364,346.258,300.25,346.258z"/>
				<path fill="#D4D6D7" d="M300.437,346.07h-144.21c-6.114,0-11.071,4.956-11.071,11.071v91.446
					c0,6.115,4.956,11.071,11.071,11.071h144.21c6.114,0,11.071-4.957,11.071-11.071v-91.446
					C311.508,351.026,306.552,346.07,300.437,346.07z"/>
				<path fill="#D3D5D6" d="M300.625,345.882h-144.21c-6.115,0-11.071,4.956-11.071,11.071v91.446
					c0,6.115,4.956,11.071,11.071,11.071h144.21c6.114,0,11.071-4.957,11.071-11.071v-91.446
					C311.696,350.838,306.74,345.882,300.625,345.882z"/>
				<path fill="#D2D4D5" d="M300.813,345.694h-144.21c-6.115,0-11.071,4.956-11.071,11.071v91.446
					c0,6.115,4.956,11.071,11.071,11.071h144.21c6.114,0,11.071-4.957,11.071-11.071v-91.446
					C311.884,350.65,306.928,345.694,300.813,345.694z"/>
				<path fill="#D1D3D4" d="M301.001,345.506h-144.21c-6.115,0-11.071,4.956-11.071,11.071v91.446
					c0,6.115,4.956,11.071,11.071,11.071h144.21c6.114,0,11.071-4.957,11.071-11.071v-91.446
					C312.072,350.463,307.115,345.506,301.001,345.506z"/>
			</g>
			<g>
				<path fill="#FFFFFF" d="M300.974,345.506h-144.21c-6.115,0-11.071,4.956-11.071,11.071v91.446
					c0,6.115,4.956,11.071,11.071,11.071h144.21c6.114,0,11.071-4.957,11.071-11.071v-91.446
					C312.045,350.463,307.088,345.506,300.974,345.506z"/>
				<path fill="#00A79D" d="M300.974,345.506h-144.21c-6.115,0-11.071,4.956-11.071,11.071v15.451h166.352v-15.451
					C312.045,350.463,307.088,345.506,300.974,345.506z"/>
				<circle fill="#EF4065" cx="177.001" cy="358.767" r="3.837"/>
				<circle fill="#F7941D" cx="160.472" cy="358.767" r="3.837"/>
				<circle fill="#5FC8D7" cx="193.53" cy="358.767" r="3.837"/>
				<rect x="158.036" y="388.073" fill="#DB3931" width="9.848" height="45.534"/>
				<rect x="173.865" y="398.617" fill="#FFCE55" width="9.848" height="34.99"/>
				<rect x="189.693" y="393.149" fill="#5FC8D7" width="9.848" height="40.459"/>
				<rect x="205.522" y="407.188" fill="#006838" width="9.848" height="26.999"/>
				<circle fill="#5FC8D7" cx="243.016" cy="393.816" r="12.234"/>
				<rect x="265.88" y="391.713" fill="#FFCE55" width="32.372" height="4.207"/>
				<rect x="233.508" y="410.392" fill="#877F7D" width="64.743" height="4.207"/>
				<rect x="233.508" y="419.896" fill="#877F7D" width="64.743" height="4.207"/>
				<rect x="233.508" y="429.4" fill="#877F7D" width="64.743" height="4.207"/>
				<rect x="168.765" y="443.981" fill="#FFCE55" width="22.606" height="4.207"/>
				<rect x="158.036" y="441.896" fill="#DB3931" width="8.377" height="8.377"/>
				<rect x="210.27" y="443.981" fill="#FFCE55" width="22.606" height="4.207"/>
				<rect x="199.541" y="441.896" fill="#5FC8D7" width="8.377" height="8.377"/>
			</g>
		</g>
		<g>
			<path fill="#594A42" d="M578.12,549.298c-0.104,0.311,0.128,4.143-4.119,5.283c-4.247,1.139-7.252,1.45-7.769,2.901
				c-0.518,1.45,0,1.45,0,1.45s13.052,0,15.642-0.829c0.829-1.347,0.518-8.805,0.518-8.805H578.12z"/>
			<path fill="#594A42" d="M605.121,549.251c-0.037,0.311,1.02,4.124-2.981,5.344c-4.001,1.22-6.938,1.59-7.143,3.044
				c-0.206,1.455,0.312,1.444,0.312,1.444s13.049-0.262,15.461-1.139c0.539-1.358-1.377-8.779-1.377-8.779L605.121,549.251z"/>
			<path fill="#9D2E24" d="M574.263,457.383c0,0-2.74,48.588-1.846,58.125c0.894,9.537,5.064,34.871,5.064,34.871h5.665
				l-1.49-36.361c0,0,4.468-24.439,6.406-28.612c3.727,7.451,6.14,30.283,6.14,30.283l10.105,34.69h6.557
				c0,0-7.153-35.169-6.855-36.063c0.298-0.894,3.475-37.43-4.372-54.778C591.491,456.198,574.263,457.383,574.263,457.383z"/>
			<path opacity="0.5" fill="#9D2E24" d="M573.745,467.14c3.796,1.659,13.919,5.851,19.758,6.049
				c5.976,0.203,9.874,11.37,11.354,18.855c-0.193-10.466-1.266-22.449-4.522-30.837c-6.125,0.525-16.693,1.497-18.687,2.104
				c-2.84,0.864-6.051-4.569-6.792-4.075c-0.155,0.103-0.417,0.228-0.719,0.408C574.045,461.361,573.907,463.963,573.745,467.14z"/>
			<path fill="#FFBBA6" d="M621.264,466.595c0,0-1.909,3.616-3.872,5.352c-1.963,1.737,0.981,0.982,2.642-0.906
				c0.68-0.68,0.906,2.19,0.151,3.096c-0.755,0.906-2.643,2.039-2.869,2.265c-0.226,0.226,2.266-0.253,3.776-1.235
				c-0.68,1.284-3.398,2.594-3.172,3.047c0.226,0.453,3.247,0.453,5.587-1.51c2.341-1.963,1.208-8.909,1.057-9.74
				C624.414,466.134,621.264,466.595,621.264,466.595z"/>
			<path fill="#FFBBA6" d="M568.914,385.316c0,0,4.919-1.033,7.231-1.44c2.311-0.408-1.308-0.909-3.513-1.358
				c0.155-1.331,3.842-5.066,5.133-6.316c1.291-1.251-1.433-0.24-3.079,1.233c-1.073,1.042-1.562,1.37-1.562,1.37
				s2.529-5.035,2.254-5.949c-0.275-0.914-5.102,1.708-6.393,2.959c-1.291,1.251-2.529,7.009-2.529,7.009L568.914,385.316z"/>
			<path fill="#B38FF7" d="M624.608,435.617c-0.279-0.846-0.428-1.574-0.854-2.521c-0.446-0.925-1.036-2.082-1.474-2.65
				c-0.956-1.444-1.872-2.56-2.808-3.672c-1.864-2.201-3.749-4.177-5.659-6.11c-1.793-1.793-3.584-3.524-5.403-5.225
				c-0.037-0.034-0.077-0.062-0.114-0.095c-3.203-4.907-19.203-4.356-19.203-4.356s-13.477,1.345-14.104,1.259
				c-2.254-0.312-4.498-0.697-6.627-1.159c-0.013-0.135-6.134-1.768-6.574-1.912c-0.521-0.17-1.067-0.356-1.433-0.764
				c-0.875-0.976,0.284-3.608,0.636-4.615c0.68-2.066,1.593-4.19,2.586-6.293c2.003-4.2,4.371-8.414,6.86-12.407l-4.358-3.281
				c-3.263,3.814-6.285,7.683-9.135,11.881c-1.413,2.105-2.775,4.274-3.998,6.672c-1.155,2.479-2.481,4.827-2.649,8.949
				c-0.023,1.019,0.173,2.352,0.748,3.724c0.295,0.631,0.887,1.585,1.179,1.884l1.028,1.144c1.383,1.375,2.691,2.243,3.976,3.052
				c2.55,1.533,5.01,2.616,7.473,3.615c1.904,0.754,3.776,1.411,5.652,2.031c0.292,6.212,1.941,14.03,2.334,20.708
				c0.67,11.385,0.732,20.103,0.732,20.103s16.765,5.37,29.489,0.347c0.617-6.996,2.097-22.846,3.917-33.629
				c1.441,1.001,5.923,4.478,6.538,5.078c0.448,0.383,0.364,0.436,0.59,0.608c0.18,0.188,0.383,0.716,0.594,1.059
				c1.639,3.742,2.65,8.933,3.451,13.828c0.805,4.972,1.391,10.091,1.827,15.138l5.455,0.041c0.426-5.266,0.702-10.464,0.738-15.776
				C625.986,446.911,626.043,441.74,624.608,435.617z M560.125,408.846c-0.026-0.076-0.016-0.228-0.028-0.334
				c0.022,0.049,0.065,0.106,0.057,0.137C560.266,408.903,560.155,409.043,560.125,408.846z"/>
			<path fill="#FFBBA6" d="M592.709,410.564c-0.363-2.058-0.31-5.133-0.31-5.133l-4.429,0.656c0,0,0.082,4.019-2.297,5.741
				c-0.716,3.194,2.807,4.046,6.227,1.139C592.588,412.381,592.866,411.453,592.709,410.564z"/>
			<path fill="#8C67E8" d="M589.166,414.53c0,0-0.561-1.685,0.545-2.475c1.106-0.79,2.683-1.501,3.04-2.528
				c0.752,0.632,1.305,1.685,1.226,2.502c-0.079,0.817-3.555,4.214-3.555,4.214L589.166,414.53z"/>
			<path fill="#8C67E8" d="M586.97,410.319c0,0-0.715,1.544,0.344,2.313c0.289,0.433,0.621,2.646-0.58,3.368
				c0,0-1.97-1.828-2.211-3.608C584.379,411.093,586.001,410.123,586.97,410.319z"/>
			<circle fill="#8C67E8" cx="588.156" cy="420.405" r="1.033"/>
			<circle fill="#8C67E8" cx="587.587" cy="427.009" r="1.033"/>
			<path opacity="0.5" fill="#B38FF7" d="M571.255,419.788c-0.207-1.241-12.309,0.57-18.102-6.904
				c-1.336-2.082-1.956-5.975-1.862-8.765c-0.516,1.438-0.909,3.082-0.995,5.196c-0.023,1.019,0.173,2.352,0.748,3.724
				c0.295,0.631,0.887,1.585,1.179,1.884l1.028,1.144c1.383,1.375,2.691,2.243,3.976,3.052c2.55,1.533,5.01,2.616,7.473,3.615
				c1.904,0.754,3.776,1.411,5.652,2.031C570.352,424.766,571.462,421.03,571.255,419.788z"/>
			<path opacity="0.5" fill="#FFBBA6" d="M587.97,406.086c0,0,0.022,1.216-0.351,2.596c1.374,0.567,3.091,0.942,4.924,0.578
				c-0.175-1.848-0.144-3.83-0.144-3.83L587.97,406.086z"/>
			<path fill="#FFBBA6" d="M601.028,394.154c-0.308-1.011-0.824-1.973-1.571-2.831c-1.662-1.908-4.185-2.929-6.7-2.716
				c-4.778,0.569-7.167,4.436-8.759,8.418c-1.592,3.982-2.723,6.513-0.682,8.418c2.117,1.976,7.25,1.564,11.459,0.313
				C599.553,404.335,602.428,398.743,601.028,394.154z"/>
			<path fill="#9D2E24" d="M586.502,388.579c0,0,0.097,4.959,8.581,7.982c0.683,1.268-0.817,4.095-3.285,4.973
				c-2.468,0.878,1.568,1.17,3.45,0c1.883-1.17,1.628,2.063,0,2.299c-1.628,0.236-3.625,1.609-3.225,2.584
				c0.401,0.975,3.84,1.26,7.838-2.056c3.998-3.316,5.753-8.776,4.973-11.604c-0.604-2.191-2.814-3.894-4.605-5.102
				c-2.15-1.45-4.672-2.188-6.782-3.717c-0.424-0.307-1.445-0.981-1.356,0.02c0.165,1.853-0.616,0.705-1.591,0.12
				c-0.975-0.585-1.95-0.682-1.658,0.682c0.292,1.365-0.186,0.683-1.361,0.195C586.307,384.47,586.352,386.888,586.502,388.579z"/>
			<path opacity="0.5" fill="#9D2E24" d="M602.688,401.137c-2.386-0.344-4.004-2.474-3.267-4.378
				c0.889-2.296-0.148-2.148-5.435-3.11c-4.571-0.832-6.886-6.445-7.43-7.952c-0.181,0.765-0.138,1.931-0.053,2.883
				c0,0,0.097,4.959,8.581,7.982c0.682,1.268-0.817,4.095-3.285,4.973c-2.468,0.878,1.568,1.17,3.45,0
				c1.883-1.17,1.628,2.063,0,2.299c-1.628,0.236-3.625,1.61-3.225,2.584c0.401,0.975,3.84,1.26,7.838-2.056
				C600.992,403.425,601.922,402.31,602.688,401.137z"/>
			<path opacity="0.5" fill="#B38FF7" d="M617.328,440.265c-0.39-1.561,1.268-3.316,1.17-4.097
				c-0.098-0.781-2.243,0.292-3.219-0.878c-0.975-1.171-7.413-10.144-7.706-9.315c0,0-2.892,2.301-3.577,7.291
				c-0.685,4.99-2.152,17.024-4.305,18.98c-2.152,1.957-12.915,4.189-7.729,4.932c5.185,0.743,8.316,2.015,7.534,3.58
				c-0.759,1.519-3.724,7.181-26.244,3.853c0.009,0.623,0.012,0.966,0.012,0.966s16.765,5.37,29.488,0.347
				c0.618-6.996,2.098-22.846,3.917-33.629c0.107,0.074,0.233,0.164,0.369,0.263c0.035,0.026,0.074,0.054,0.112,0.081
				c0.107,0.078,0.22,0.16,0.34,0.249c0.047,0.035,0.095,0.07,0.143,0.106c0.142,0.106,0.291,0.216,0.446,0.333
				c0.022,0.017,0.043,0.032,0.066,0.049c0.194,0.146,0.395,0.298,0.603,0.456l0,0c1.825,1.387,4.04,3.133,4.46,3.542
				c0.449,0.383,0.364,0.436,0.59,0.608c0.18,0.188,0.383,0.716,0.594,1.059c1.639,3.742,2.65,8.933,3.451,13.828
				c0.694,4.289,1.201,8.684,1.614,13.051c0.004-0.036,0.012-0.063,0.016-0.101C620.081,459.676,617.718,441.826,617.328,440.265z"
				/>
			<path opacity="0.5" fill="#9D2E24" d="M580.336,507.021c-0.485,5.017-3.075,6.312-3.399,6.797
				c-0.324,0.486,2.751,1.295,3.399,3.56c0.647,2.265,2.306,20.705,2.308,20.726l-0.987-24.087c0,0,4.468-24.44,6.407-28.612
				c0,0-2.386-2.661-3.519-4.441C583.411,479.185,580.821,502.004,580.336,507.021z"/>
		</g>
		<g>
			<path fill="#594A42" d="M166.958,571.001c-1.15-1.796-6.864-0.517-9.889-2.237c-2.378-1.351-2.241-5.042-2.241-5.042
				l-4.753-0.723c0,0-1.315,5.387-1.384,9.04c-0.018,1.007,0.729,1.875,1.724,2.029c9.614,1.492,17.069,0.492,17.069,0.492
				S168.108,572.797,166.958,571.001z"/>
			<path fill="#594A42" d="M137.362,568.469c-1.115-1.741-6.025-1.667-8.958-3.334c-2.306-1.309-1.631-4.806-1.631-4.806
				l-4.556-0.693c0,0-1.868,5.132-1.935,8.674c-0.018,0.976,0.706,1.817,1.671,1.967c9.32,1.446,15.919,1.642,15.919,1.642
				S138.477,570.21,137.362,568.469z"/>
			<path fill="#00A79D" d="M161.053,524.513l-3.112-48.16l-26.939-0.418c0,0-2.787,5.932-3.147,11.981
				c-0.36,6.048,0.659,25.799,0.659,25.805l-0.435,6.607l0.114-0.63l-7.12,41.193l5.813,1.39l12.291-39.956l0.114-0.631
				l3.977-26.666l6.537,30.566l-0.452,39.241l5.916,0.53l5.793-39.838l0.032-0.221L161.053,524.513z"/>
			<path opacity="0.5" fill="#00A79D" d="M157.94,476.354l-26.768-0.415c-0.06,0-0.116,0-0.173,0
				c-0.013,0.027-1.775,3.797-2.672,8.383c4.844,0.281,13.816,0.455,18.215,3.302c5.265,3.407,10.389,11.65,13.231,17.103
				L157.94,476.354z"/>
			<path opacity="0.5" fill="#00A79D" d="M138.036,500.245c-1.937,3.851-0.352,16.31-1.711,18.349
				c-1.359,2.039-4.077,0.488-2.265,2.056c1.812,1.568-3.04,28.192-3.04,28.192l0,0l8.157-26.516l0.114-0.631l3.977-26.666
				C143.267,495.029,139.973,496.394,138.036,500.245z"/>
			<path fill="#FFBBA6" d="M153.736,396.554c-2.211-3.452-8.608-4.086-13.321-0.658c-4.714,3.428-0.953,12.489-0.953,12.489
				c3.676,8.026,12.763,8.503,14.997,5.03C156.694,409.941,155.946,400.005,153.736,396.554z"/>
			<path fill="#FFBBA6" d="M149.526,413.267c0,0-0.771,6.627,1.571,10.45c0,0-3.822,0.398-6.675-0.123
				c-2.853-0.52,0.944-12.405,0.944-12.405S148.365,411.193,149.526,413.267z"/>
			<path fill="#0B5F99" d="M151.41,389.75c-3.599-0.148-8.119,0.674-11.573,2.203c-3.02,1.337-4.771,4.506-4.379,7.785
				c0.598,4.991,2.55,10.234,4.546,13.099c2.62,3.76,10.023,4.792,10.934,2.652c0.911-2.14-0.454-4.507-1.903-5.71
				c-1.45-1.203,0.271-4.323,1.406-3.406c1.135,0.917,1.709,4.511,2.752,3.482c1.043-1.029-3.7-7.596-0.754-7.926
				c2.153-0.241,3.825-1.944,4.925-3.979c0.823-1.523,1.325-3.231,1.47-4.654C159.244,389.277,154.022,389.857,151.41,389.75z"/>
			<path fill="#A59C9A" d="M141.674,418.471c0,0,1.905-1.164,4.291-0.606c2.386,0.557,5.209,1.722,5.209,1.722l1.201,3.534
				c0,0-4.517-1.112-7.001-0.987C142.888,422.259,140.234,422.296,141.674,418.471z"/>
			<path fill="#FFBBA6" d="M117.483,471.347c0,0,1.618,6.031,2.431,7.312c0.813,1.281-0.893,0.814-1.85-0.821
				c-0.956-1.634-1.159-0.611-1.075-0.044c0.085,0.566,0.638,4.139,0.513,4.952c-0.125,0.814-0.605-0.087-0.968-1.415
				c-0.363-1.327-0.633-2.142-0.633-2.142s-0.013,3.546-0.781,3.879c-0.769,0.333-2.465-2.129-3.075-3.659
				c-0.611-1.53,2.354-8.253,2.354-8.253L117.483,471.347z"/>
			<path fill="#FFBBA6" d="M201.002,411.245c0,0,3.991-5.284,5.74-7.082c1.749-1.798,5.046-3.797,5.495-3.331
				c0.449,0.466-2.275,2.418-2.747,3.209c-0.472,0.792,1.348,1.34,2.118,3.013c0.77,1.673-0.355,3.768-1.739,4.372
				c-1.383,0.604-3.267,0.398-4.023,1.07c-0.756,0.673-2.204,1.764-2.204,1.764L201.002,411.245z"/>
			<path fill="#877F7D" d="M201.659,410.006c-3.867,3.384-7.281,7.148-11.241,10.387c-1.98,1.617-3.975,3.218-5.973,4.716
				c-0.994,0.757-2.004,1.484-2.971,2.131c-0.482,0.318-0.981,0.661-1.388,0.864c-0.182,0.089-0.494,0.305-0.563,0.291
				c-0.077-0.009-0.118,0.016-0.186,0.025c-0.218-0.12-1.227,0.004-2.341-0.106c-1.051-0.04-2.274-0.177-3.445-0.307
				c-2.379-0.269-4.857-0.679-7.315-1.1c-1.571-0.278-16.341-5.925-19.269-6.43c-0.694-0.12-1.421-0.161-2.124-0.122
				c-6.188,0.345-10.33,1.615-12.789,3.9c-0.497,0.373-0.967,0.792-1.368,1.31c-1.307,1.689-2.597,3.389-3.885,5.117
				c-2.855,3.873-5.643,7.699-8.258,12.166c-1.355,2.195-2.58,5.287-3.063,7.727c-0.574,2.53-0.912,4.959-1.168,7.373
				c-0.486,4.829-0.673,9.537-0.675,14.323l4.37,0.379c0.889-4.474,1.98-8.994,3.297-13.294c0.666-2.144,1.41-4.248,2.264-6.146
				c0.894-2.006,1.689-3.16,3.088-4.725c0.828-0.932,1.722-1.868,2.642-2.804c-0.297,11.757-1.153,26.304-1.448,35.495
				c12.888,4.859,31.142,1.265,31.142,1.265s0.2-21.536,2.302-29.497c0.911-3.449,1.875-8.098,2.351-12.613
				c0.607-0.025,1.206-0.035,1.816-0.064c2.689-0.146,5.363-0.303,8.139-0.611c1.403-0.163,2.763-0.311,4.278-0.596
				c1.455-0.264,3.017-0.533,5.242-1.475c0.513-0.26,1.021-0.583,1.509-0.898c0.495-0.325,0.677-0.534,1.026-0.808
				c0.657-0.528,1.143-1.016,1.661-1.511c1.022-0.991,1.953-1.964,2.857-2.949c1.82-1.963,3.537-3.942,5.238-5.933
				c3.396-3.983,6.676-8,9.925-12.076L201.659,410.006z"/>
			<path opacity="0.5" fill="#0B5F99" d="M147.006,399.744c-3.017,0.759-1.265,7.227-5.119,7.263
				c-2.163,0.02-3.657,0.056-4.84-0.412c0.842,2.49,1.889,4.71,2.957,6.242c2.62,3.76,10.023,4.792,10.934,2.652
				c0.911-2.14-0.454-4.507-1.903-5.71c-1.45-1.203,0.271-4.323,1.406-3.406c1.135,0.917,1.709,4.511,2.752,3.482
				c1.043-1.029-3.7-7.596-0.754-7.926c2.153-0.241,3.825-1.944,4.925-3.979c0.823-1.523,1.325-3.231,1.47-4.654
				C158.835,393.296,156.798,399.517,147.006,399.744z"/>
			<path opacity="0.5" fill="#877F7D" d="M182.368,434.128c-3.503,0.973-12.576,2.141-21.275,1.362
				c-4.806,1.168-4.593,10.316-5.283,22.383c-0.691,12.068-1.336,12.161-4.712,13.282c-3.375,1.121-3.048,3.067,0,3.457
				c2.942,0.376-3.164,8.331-23.19,4.862c-0.021,0.584-0.041,1.153-0.059,1.7c12.888,4.859,31.142,1.265,31.142,1.265
				s0.2-21.536,2.302-29.497c0.911-3.449,1.875-8.098,2.351-12.613c0.607-0.025,1.206-0.035,1.816-0.064
				c2.689-0.146,5.363-0.303,8.139-0.611c1.403-0.163,2.763-0.311,4.278-0.596c1.455-0.264,3.017-0.533,5.242-1.475
				c0.513-0.26,1.021-0.583,1.509-0.898c0.495-0.325,0.677-0.534,1.026-0.808c0.657-0.528,1.143-1.016,1.661-1.511
				c1.022-0.991,1.953-1.964,2.857-2.949c1.82-1.963,3.537-3.942,5.238-5.933c1.077-1.264,2.127-2.537,3.183-3.808
				C197.752,422.433,185.748,433.189,182.368,434.128z"/>
			<path opacity="0.5" fill="#877F7D" d="M121.072,448.759c-0.797,2.762-2.001,18.952-2.001,18.952s0.021-0.038,0.051-0.093
				c0.653-2.796,1.358-5.575,2.181-8.264c0.666-2.144,1.41-4.248,2.264-6.146c0.894-2.006,1.689-3.16,3.088-4.725
				c0.828-0.932,1.722-1.868,2.642-2.804c0,0,1.567-10.424,1.721-11.652C131.171,432.8,121.869,445.997,121.072,448.759z"/>
		</g>
	</g>
</g>
</svg>
